<svg width="1920" height="920" viewBox="0 0 1920 920" fill="none" xmlns="http://www.w3.org/2000/svg"
    xmlns:xlink="http://www.w3.org/1999/xlink">
    <path opacity="0.3"
        d="M25 908.818H29.0908V909.728H25V913.818H24.0908V909.728H20V908.818H24.0908V904.728H25V908.818ZM70.4541 908.818H74.5459V909.728H70.4541V913.818H69.5449V909.728H65.4541V908.818H69.5449V904.728H70.4541V908.818ZM115.909 908.818H120V909.728H115.909V913.818H115V909.728H110.909V908.818H115V904.728H115.909V908.818ZM161.363 908.818H165.454V909.728H161.363V913.818H160.454V909.728H156.363V908.818H160.454V904.728H161.363V908.818ZM206.818 908.818H210.909V909.728H206.818V913.818H205.909V909.728H201.818V908.818H205.909V904.728H206.818V908.818ZM252.272 908.818H256.363V909.728H252.272V913.818H251.363V909.728H247.272V908.818H251.363V904.728H252.272V908.818ZM297.728 908.818H301.818V909.728H297.728V913.818H296.818V909.728H292.728V908.818H296.818V904.728H297.728V908.818ZM343.182 908.818H347.272V909.728H343.182V913.818H342.272V909.728H338.182V908.818H342.272V904.728H343.182V908.818ZM388.637 908.818H392.728V909.728H388.637V913.818H387.728V909.728H383.637V908.818H387.728V904.728H388.637V908.818ZM434.091 908.818H438.182V909.728H434.091V913.818H433.182V909.728H429.091V908.818H433.182V904.728H434.091V908.818ZM479.545 908.818H483.637V909.728H479.545V913.818H478.637V909.728H474.546V908.818H478.637V904.728H479.545V908.818ZM525 908.818H529.091V909.728H525V913.818H524.091V909.728H520V908.818H524.091V904.728H525V908.818ZM570.454 908.818H574.546V909.728H570.454V913.818H569.545V909.728H565.454V908.818H569.545V904.728H570.454V908.818ZM615.909 908.818H620V909.728H615.909V913.818H615V909.728H610.909V908.818H615V904.728H615.909V908.818ZM665 908.818H669.091V909.728H665V913.818H664.091V909.728H660V908.818H664.091V904.728H665V908.818ZM710.454 908.818H714.546V909.728H710.454V913.818H709.545V909.728H705.454V908.818H709.545V904.728H710.454V908.818ZM755.909 908.818H760V909.728H755.909V913.818H755V909.728H750.909V908.818H755V904.728H755.909V908.818ZM801.363 908.818H805.454V909.728H801.363V913.818H800.454V909.728H796.363V908.818H800.454V904.728H801.363V908.818ZM846.818 908.818H850.909V909.728H846.818V913.818H845.909V909.728H841.818V908.818H845.909V904.728H846.818V908.818ZM892.272 908.818H896.363V909.728H892.272V913.818H891.363V909.728H887.272V908.818H891.363V904.728H892.272V908.818ZM937.728 908.818H941.818V909.728H937.728V913.818H936.818V909.728H932.728V908.818H936.818V904.728H937.728V908.818ZM983.182 908.818H987.272V909.728H983.182V913.818H982.272V909.728H978.182V908.818H982.272V904.728H983.182V908.818ZM1028.64 908.818H1032.73V909.728H1028.64V913.818H1027.73V909.728H1023.64V908.818H1027.73V904.728H1028.64V908.818ZM1074.09 908.818H1078.18V909.728H1074.09V913.818H1073.18V909.728H1069.09V908.818H1073.18V904.728H1074.09V908.818ZM1119.54 908.818H1123.64V909.728H1119.54V913.818H1118.64V909.728H1114.55V908.818H1118.64V904.728H1119.54V908.818ZM1165 908.818H1169.09V909.728H1165V913.818H1164.09V909.728H1160V908.818H1164.09V904.728H1165V908.818ZM1210.45 908.818H1214.55V909.728H1210.45V913.818H1209.54V909.728H1205.45V908.818H1209.54V904.728H1210.45V908.818ZM1255.91 908.818H1260V909.728H1255.91V913.818H1255V909.728H1250.91V908.818H1255V904.728H1255.91V908.818ZM1305 904.728V908.818H1309.09V909.728H1305V913.818H1304.09V909.728H1300V908.818H1304.09V904.728H1305ZM1350.45 904.728V908.818H1354.55V909.728H1350.45V913.818H1349.54V909.728H1345.45V908.818H1349.54V904.728H1350.45ZM1395.91 904.728V908.818H1400V909.728H1395.91V913.818H1395V909.728H1390.91V908.818H1395V904.728H1395.91ZM1441.36 904.728V908.818H1445.45V909.728H1441.36V913.818H1440.45V909.728H1436.36V908.818H1440.45V904.728H1441.36ZM1486.82 904.728V908.818H1490.91V909.728H1486.82V913.818H1485.91V909.728H1481.82V908.818H1485.91V904.728H1486.82ZM1532.27 904.728V908.818H1536.36V909.728H1532.27V913.818H1531.36V909.728H1527.27V908.818H1531.36V904.728H1532.27ZM1577.73 904.728V908.818H1581.82V909.728H1577.73V913.818H1576.82V909.728H1572.73V908.818H1576.82V904.728H1577.73ZM1623.18 904.728V908.818H1627.27V909.728H1623.18V913.818H1622.27V909.728H1618.18V908.818H1622.27V904.728H1623.18ZM1668.64 904.728V908.818H1672.73V909.728H1668.64V913.818H1667.73V909.728H1663.64V908.818H1667.73V904.728H1668.64ZM1714.09 904.728V908.818H1718.18V909.728H1714.09V913.818H1713.18V909.728H1709.09V908.818H1713.18V904.728H1714.09ZM1759.54 904.728V908.818H1763.64V909.728H1759.54V913.818H1758.64V909.728H1754.55V908.818H1758.64V904.728H1759.54ZM1805 904.728V908.818H1809.09V909.728H1805V913.818H1804.09V909.728H1800V908.818H1804.09V904.728H1805ZM1850.45 904.728V908.818H1854.55V909.728H1850.45V913.818H1849.54V909.728H1845.45V908.818H1849.54V904.728H1850.45ZM1895.91 904.728V908.818H1900V909.728H1895.91V913.818H1895V909.728H1890.91V908.818H1895V904.728H1895.91ZM25 863.363H29.0908V864.272H25V868.363H24.0908V864.272H20V863.363H24.0908V859.272H25V863.363ZM70.4541 863.363H74.5459V864.272H70.4541V868.363H69.5449V864.272H65.4541V863.363H69.5449V859.272H70.4541V863.363ZM115.909 863.363H120V864.272H115.909V868.363H115V864.272H110.909V863.363H115V859.272H115.909V863.363ZM161.363 863.363H165.454V864.272H161.363V868.363H160.454V864.272H156.363V863.363H160.454V859.272H161.363V863.363ZM206.818 863.363H210.909V864.272H206.818V868.363H205.909V864.272H201.818V863.363H205.909V859.272H206.818V863.363ZM252.272 863.363H256.363V864.272H252.272V868.363H251.363V864.272H247.272V863.363H251.363V859.272H252.272V863.363ZM297.728 863.363H301.818V864.272H297.728V868.363H296.818V864.272H292.728V863.363H296.818V859.272H297.728V863.363ZM343.182 863.363H347.272V864.272H343.182V868.363H342.272V864.272H338.182V863.363H342.272V859.272H343.182V863.363ZM388.637 863.363H392.728V864.272H388.637V868.363H387.728V864.272H383.637V863.363H387.728V859.272H388.637V863.363ZM434.091 863.363H438.182V864.272H434.091V868.363H433.182V864.272H429.091V863.363H433.182V859.272H434.091V863.363ZM479.545 863.363H483.637V864.272H479.545V868.363H478.637V864.272H474.546V863.363H478.637V859.272H479.545V863.363ZM525 863.363H529.091V864.272H525V868.363H524.091V864.272H520V863.363H524.091V859.272H525V863.363ZM570.454 863.363H574.546V864.272H570.454V868.363H569.545V864.272H565.454V863.363H569.545V859.272H570.454V863.363ZM615.909 863.363H620V864.272H615.909V868.363H615V864.272H610.909V863.363H615V859.272H615.909V863.363ZM665 863.363H669.091V864.272H665V868.363H664.091V864.272H660V863.363H664.091V859.272H665V863.363ZM710.454 863.363H714.546V864.272H710.454V868.363H709.545V864.272H705.454V863.363H709.545V859.272H710.454V863.363ZM755.909 863.363H760V864.272H755.909V868.363H755V864.272H750.909V863.363H755V859.272H755.909V863.363ZM801.363 863.363H805.454V864.272H801.363V868.363H800.454V864.272H796.363V863.363H800.454V859.272H801.363V863.363ZM846.818 863.363H850.909V864.272H846.818V868.363H845.909V864.272H841.818V863.363H845.909V859.272H846.818V863.363ZM892.272 863.363H896.363V864.272H892.272V868.363H891.363V864.272H887.272V863.363H891.363V859.272H892.272V863.363ZM937.728 863.363H941.818V864.272H937.728V868.363H936.818V864.272H932.728V863.363H936.818V859.272H937.728V863.363ZM983.182 863.363H987.272V864.272H983.182V868.363H982.272V864.272H978.182V863.363H982.272V859.272H983.182V863.363ZM1028.64 863.363H1032.73V864.272H1028.64V868.363H1027.73V864.272H1023.64V863.363H1027.73V859.272H1028.64V863.363ZM1074.09 863.363H1078.18V864.272H1074.09V868.363H1073.18V864.272H1069.09V863.363H1073.18V859.272H1074.09V863.363ZM1119.54 863.363H1123.64V864.272H1119.54V868.363H1118.64V864.272H1114.55V863.363H1118.64V859.272H1119.54V863.363ZM1165 863.363H1169.09V864.272H1165V868.363H1164.09V864.272H1160V863.363H1164.09V859.272H1165V863.363ZM1210.45 863.363H1214.55V864.272H1210.45V868.363H1209.54V864.272H1205.45V863.363H1209.54V859.272H1210.45V863.363ZM1255.91 863.363H1260V864.272H1255.91V868.363H1255V864.272H1250.91V863.363H1255V859.272H1255.91V863.363ZM1305 859.272V863.363H1309.09V864.272H1305V868.363H1304.09V864.272H1300V863.363H1304.09V859.272H1305ZM1350.45 859.272V863.363H1354.55V864.272H1350.45V868.363H1349.54V864.272H1345.45V863.363H1349.54V859.272H1350.45ZM1395.91 859.272V863.363H1400V864.272H1395.91V868.363H1395V864.272H1390.91V863.363H1395V859.272H1395.91ZM1441.36 859.272V863.363H1445.45V864.272H1441.36V868.363H1440.45V864.272H1436.36V863.363H1440.45V859.272H1441.36ZM1486.82 859.272V863.363H1490.91V864.272H1486.82V868.363H1485.91V864.272H1481.82V863.363H1485.91V859.272H1486.82ZM1532.27 859.272V863.363H1536.36V864.272H1532.27V868.363H1531.36V864.272H1527.27V863.363H1531.36V859.272H1532.27ZM1577.73 859.272V863.363H1581.82V864.272H1577.73V868.363H1576.82V864.272H1572.73V863.363H1576.82V859.272H1577.73ZM1623.18 859.272V863.363H1627.27V864.272H1623.18V868.363H1622.27V864.272H1618.18V863.363H1622.27V859.272H1623.18ZM1668.64 859.272V863.363H1672.73V864.272H1668.64V868.363H1667.73V864.272H1663.64V863.363H1667.73V859.272H1668.64ZM1714.09 859.272V863.363H1718.18V864.272H1714.09V868.363H1713.18V864.272H1709.09V863.363H1713.18V859.272H1714.09ZM1759.54 859.272V863.363H1763.64V864.272H1759.54V868.363H1758.64V864.272H1754.55V863.363H1758.64V859.272H1759.54ZM1805 859.272V863.363H1809.09V864.272H1805V868.363H1804.09V864.272H1800V863.363H1804.09V859.272H1805ZM1850.45 859.272V863.363H1854.55V864.272H1850.45V868.363H1849.54V864.272H1845.45V863.363H1849.54V859.272H1850.45ZM1895.91 859.272V863.363H1900V864.272H1895.91V868.363H1895V864.272H1890.91V863.363H1895V859.272H1895.91ZM207.272 817.454H215.454V819.272H207.272V827.455H205.454V819.272H197.272V817.454H205.454V809.272H207.272V817.454ZM434.546 817.454H442.728V819.272H434.546V827.455H432.728V819.272H424.546V817.454H432.728V809.272H434.546V817.454ZM847.272 817.454H855.454V819.272H847.272V827.455H845.454V819.272H837.272V817.454H845.454V809.272H847.272V817.454ZM1074.55 817.454H1082.73V819.272H1074.55V827.455H1072.73V819.272H1064.55V817.454H1072.73V809.272H1074.55V817.454ZM1487.27 809.272V817.454H1495.45V819.272H1487.27V827.455H1485.45V819.272H1477.27V817.454H1485.45V809.272H1487.27ZM1714.55 809.272V817.454H1722.73V819.272H1714.55V827.455H1712.73V819.272H1704.55V817.454H1712.73V809.272H1714.55ZM25 817.909H29.0908V818.818H25V822.909H24.0908V818.818H20V817.909H24.0908V813.818H25V817.909ZM70.4541 817.909H74.5459V818.818H70.4541V822.909H69.5449V818.818H65.4541V817.909H69.5449V813.818H70.4541V817.909ZM115.909 817.909H120V818.818H115.909V822.909H115V818.818H110.909V817.909H115V813.818H115.909V817.909ZM161.363 817.909H165.454V818.818H161.363V822.909H160.454V818.818H156.363V817.909H160.454V813.818H161.363V817.909ZM252.272 817.909H256.363V818.818H252.272V822.909H251.363V818.818H247.272V817.909H251.363V813.818H252.272V817.909ZM297.728 817.909H301.818V818.818H297.728V822.909H296.818V818.818H292.728V817.909H296.818V813.818H297.728V817.909ZM343.182 817.909H347.272V818.818H343.182V822.909H342.272V818.818H338.182V817.909H342.272V813.818H343.182V817.909ZM388.637 817.909H392.728V818.818H388.637V822.909H387.728V818.818H383.637V817.909H387.728V813.818H388.637V817.909ZM479.545 817.909H483.637V818.818H479.545V822.909H478.637V818.818H474.546V817.909H478.637V813.818H479.545V817.909ZM525 817.909H529.091V818.818H525V822.909H524.091V818.818H520V817.909H524.091V813.818H525V817.909ZM570.454 817.909H574.546V818.818H570.454V822.909H569.545V818.818H565.454V817.909H569.545V813.818H570.454V817.909ZM615.909 817.909H620V818.818H615.909V822.909H615V818.818H610.909V817.909H615V813.818H615.909V817.909ZM665 817.909H669.091V818.818H665V822.909H664.091V818.818H660V817.909H664.091V813.818H665V817.909ZM710.454 817.909H714.546V818.818H710.454V822.909H709.545V818.818H705.454V817.909H709.545V813.818H710.454V817.909ZM755.909 817.909H760V818.818H755.909V822.909H755V818.818H750.909V817.909H755V813.818H755.909V817.909ZM801.363 817.909H805.454V818.818H801.363V822.909H800.454V818.818H796.363V817.909H800.454V813.818H801.363V817.909ZM892.272 817.909H896.363V818.818H892.272V822.909H891.363V818.818H887.272V817.909H891.363V813.818H892.272V817.909ZM937.728 817.909H941.818V818.818H937.728V822.909H936.818V818.818H932.728V817.909H936.818V813.818H937.728V817.909ZM983.182 817.909H987.272V818.818H983.182V822.909H982.272V818.818H978.182V817.909H982.272V813.818H983.182V817.909ZM1028.64 817.909H1032.73V818.818H1028.64V822.909H1027.73V818.818H1023.64V817.909H1027.73V813.818H1028.64V817.909ZM1119.54 817.909H1123.64V818.818H1119.54V822.909H1118.64V818.818H1114.55V817.909H1118.64V813.818H1119.54V817.909ZM1165 817.909H1169.09V818.818H1165V822.909H1164.09V818.818H1160V817.909H1164.09V813.818H1165V817.909ZM1210.45 817.909H1214.55V818.818H1210.45V822.909H1209.54V818.818H1205.45V817.909H1209.54V813.818H1210.45V817.909ZM1255.91 817.909H1260V818.818H1255.91V822.909H1255V818.818H1250.91V817.909H1255V813.818H1255.91V817.909ZM1305 813.818V817.909H1309.09V818.818H1305V822.909H1304.09V818.818H1300V817.909H1304.09V813.818H1305ZM1350.45 813.818V817.909H1354.55V818.818H1350.45V822.909H1349.54V818.818H1345.45V817.909H1349.54V813.818H1350.45ZM1395.91 813.818V817.909H1400V818.818H1395.91V822.909H1395V818.818H1390.91V817.909H1395V813.818H1395.91ZM1441.36 813.818V817.909H1445.45V818.818H1441.36V822.909H1440.45V818.818H1436.36V817.909H1440.45V813.818H1441.36ZM1532.27 813.818V817.909H1536.36V818.818H1532.27V822.909H1531.36V818.818H1527.27V817.909H1531.36V813.818H1532.27ZM1577.73 813.818V817.909H1581.82V818.818H1577.73V822.909H1576.82V818.818H1572.73V817.909H1576.82V813.818H1577.73ZM1623.18 813.818V817.909H1627.27V818.818H1623.18V822.909H1622.27V818.818H1618.18V817.909H1622.27V813.818H1623.18ZM1668.64 813.818V817.909H1672.73V818.818H1668.64V822.909H1667.73V818.818H1663.64V817.909H1667.73V813.818H1668.64ZM1759.54 813.818V817.909H1763.64V818.818H1759.54V822.909H1758.64V818.818H1754.55V817.909H1758.64V813.818H1759.54ZM1805 813.818V817.909H1809.09V818.818H1805V822.909H1804.09V818.818H1800V817.909H1804.09V813.818H1805ZM1850.45 813.818V817.909H1854.55V818.818H1850.45V822.909H1849.54V818.818H1845.45V817.909H1849.54V813.818H1850.45ZM1895.91 813.818V817.909H1900V818.818H1895.91V822.909H1895V818.818H1890.91V817.909H1895V813.818H1895.91ZM25 772.454H29.0908V773.363H25V777.454H24.0908V773.363H20V772.454H24.0908V768.363H25V772.454ZM70.4541 772.454H74.5459V773.363H70.4541V777.454H69.5449V773.363H65.4541V772.454H69.5449V768.363H70.4541V772.454ZM115.909 772.454H120V773.363H115.909V777.454H115V773.363H110.909V772.454H115V768.363H115.909V772.454ZM161.363 772.454H165.454V773.363H161.363V777.454H160.454V773.363H156.363V772.454H160.454V768.363H161.363V772.454ZM206.818 772.454H210.909V773.363H206.818V777.454H205.909V773.363H201.818V772.454H205.909V768.363H206.818V772.454ZM252.272 772.454H256.363V773.363H252.272V777.454H251.363V773.363H247.272V772.454H251.363V768.363H252.272V772.454ZM297.728 772.454H301.818V773.363H297.728V777.454H296.818V773.363H292.728V772.454H296.818V768.363H297.728V772.454ZM343.182 772.454H347.272V773.363H343.182V777.454H342.272V773.363H338.182V772.454H342.272V768.363H343.182V772.454ZM388.637 772.454H392.728V773.363H388.637V777.454H387.728V773.363H383.637V772.454H387.728V768.363H388.637V772.454ZM434.091 772.454H438.182V773.363H434.091V777.454H433.182V773.363H429.091V772.454H433.182V768.363H434.091V772.454ZM479.545 772.454H483.637V773.363H479.545V777.454H478.637V773.363H474.546V772.454H478.637V768.363H479.545V772.454ZM525 772.454H529.091V773.363H525V777.454H524.091V773.363H520V772.454H524.091V768.363H525V772.454ZM570.454 772.454H574.546V773.363H570.454V777.454H569.545V773.363H565.454V772.454H569.545V768.363H570.454V772.454ZM615.909 772.454H620V773.363H615.909V777.454H615V773.363H610.909V772.454H615V768.363H615.909V772.454ZM665 772.454H669.091V773.363H665V777.454H664.091V773.363H660V772.454H664.091V768.363H665V772.454ZM710.454 772.454H714.546V773.363H710.454V777.454H709.545V773.363H705.454V772.454H709.545V768.363H710.454V772.454ZM755.909 772.454H760V773.363H755.909V777.454H755V773.363H750.909V772.454H755V768.363H755.909V772.454ZM801.363 772.454H805.454V773.363H801.363V777.454H800.454V773.363H796.363V772.454H800.454V768.363H801.363V772.454ZM846.818 772.454H850.909V773.363H846.818V777.454H845.909V773.363H841.818V772.454H845.909V768.363H846.818V772.454ZM892.272 772.454H896.363V773.363H892.272V777.454H891.363V773.363H887.272V772.454H891.363V768.363H892.272V772.454ZM937.728 772.454H941.818V773.363H937.728V777.454H936.818V773.363H932.728V772.454H936.818V768.363H937.728V772.454ZM983.182 772.454H987.272V773.363H983.182V777.454H982.272V773.363H978.182V772.454H982.272V768.363H983.182V772.454ZM1028.64 772.454H1032.73V773.363H1028.64V777.454H1027.73V773.363H1023.64V772.454H1027.73V768.363H1028.64V772.454ZM1074.09 772.454H1078.18V773.363H1074.09V777.454H1073.18V773.363H1069.09V772.454H1073.18V768.363H1074.09V772.454ZM1119.54 772.454H1123.64V773.363H1119.54V777.454H1118.64V773.363H1114.55V772.454H1118.64V768.363H1119.54V772.454ZM1165 772.454H1169.09V773.363H1165V777.454H1164.09V773.363H1160V772.454H1164.09V768.363H1165V772.454ZM1210.45 772.454H1214.55V773.363H1210.45V777.454H1209.54V773.363H1205.45V772.454H1209.54V768.363H1210.45V772.454ZM1255.91 772.454H1260V773.363H1255.91V777.454H1255V773.363H1250.91V772.454H1255V768.363H1255.91V772.454ZM1305 768.363V772.454H1309.09V773.363H1305V777.454H1304.09V773.363H1300V772.454H1304.09V768.363H1305ZM1350.45 768.363V772.454H1354.55V773.363H1350.45V777.454H1349.54V773.363H1345.45V772.454H1349.54V768.363H1350.45ZM1395.91 768.363V772.454H1400V773.363H1395.91V777.454H1395V773.363H1390.91V772.454H1395V768.363H1395.91ZM1441.36 768.363V772.454H1445.45V773.363H1441.36V777.454H1440.45V773.363H1436.36V772.454H1440.45V768.363H1441.36ZM1486.82 768.363V772.454H1490.91V773.363H1486.82V777.454H1485.91V773.363H1481.82V772.454H1485.91V768.363H1486.82ZM1532.27 768.363V772.454H1536.36V773.363H1532.27V777.454H1531.36V773.363H1527.27V772.454H1531.36V768.363H1532.27ZM1577.73 768.363V772.454H1581.82V773.363H1577.73V777.454H1576.82V773.363H1572.73V772.454H1576.82V768.363H1577.73ZM1623.18 768.363V772.454H1627.27V773.363H1623.18V777.454H1622.27V773.363H1618.18V772.454H1622.27V768.363H1623.18ZM1668.64 768.363V772.454H1672.73V773.363H1668.64V777.454H1667.73V773.363H1663.64V772.454H1667.73V768.363H1668.64ZM1714.09 768.363V772.454H1718.18V773.363H1714.09V777.454H1713.18V773.363H1709.09V772.454H1713.18V768.363H1714.09ZM1759.54 768.363V772.454H1763.64V773.363H1759.54V777.454H1758.64V773.363H1754.55V772.454H1758.64V768.363H1759.54ZM1805 768.363V772.454H1809.09V773.363H1805V777.454H1804.09V773.363H1800V772.454H1804.09V768.363H1805ZM1850.45 768.363V772.454H1854.55V773.363H1850.45V777.454H1849.54V773.363H1845.45V772.454H1849.54V768.363H1850.45ZM1895.91 768.363V772.454H1900V773.363H1895.91V777.454H1895V773.363H1890.91V772.454H1895V768.363H1895.91ZM25 727H29.0908V727.909H25V732H24.0908V727.909H20V727H24.0908V722.909H25V727ZM70.4541 727H74.5459V727.909H70.4541V732H69.5449V727.909H65.4541V727H69.5449V722.909H70.4541V727ZM115.909 727H120V727.909H115.909V732H115V727.909H110.909V727H115V722.909H115.909V727ZM161.363 727H165.454V727.909H161.363V732H160.454V727.909H156.363V727H160.454V722.909H161.363V727ZM206.818 727H210.909V727.909H206.818V732H205.909V727.909H201.818V727H205.909V722.909H206.818V727ZM252.272 727H256.363V727.909H252.272V732H251.363V727.909H247.272V727H251.363V722.909H252.272V727ZM297.728 727H301.818V727.909H297.728V732H296.818V727.909H292.728V727H296.818V722.909H297.728V727ZM343.182 727H347.272V727.909H343.182V732H342.272V727.909H338.182V727H342.272V722.909H343.182V727ZM388.637 727H392.728V727.909H388.637V732H387.728V727.909H383.637V727H387.728V722.909H388.637V727ZM434.091 727H438.182V727.909H434.091V732H433.182V727.909H429.091V727H433.182V722.909H434.091V727ZM479.545 727H483.637V727.909H479.545V732H478.637V727.909H474.546V727H478.637V722.909H479.545V727ZM525 727H529.091V727.909H525V732H524.091V727.909H520V727H524.091V722.909H525V727ZM570.454 727H574.546V727.909H570.454V732H569.545V727.909H565.454V727H569.545V722.909H570.454V727ZM615.909 727H620V727.909H615.909V732H615V727.909H610.909V727H615V722.909H615.909V727ZM665 727H669.091V727.909H665V732H664.091V727.909H660V727H664.091V722.909H665V727ZM710.454 727H714.546V727.909H710.454V732H709.545V727.909H705.454V727H709.545V722.909H710.454V727ZM755.909 727H760V727.909H755.909V732H755V727.909H750.909V727H755V722.909H755.909V727ZM801.363 727H805.454V727.909H801.363V732H800.454V727.909H796.363V727H800.454V722.909H801.363V727ZM846.818 727H850.909V727.909H846.818V732H845.909V727.909H841.818V727H845.909V722.909H846.818V727ZM892.272 727H896.363V727.909H892.272V732H891.363V727.909H887.272V727H891.363V722.909H892.272V727ZM937.728 727H941.818V727.909H937.728V732H936.818V727.909H932.728V727H936.818V722.909H937.728V727ZM983.182 727H987.272V727.909H983.182V732H982.272V727.909H978.182V727H982.272V722.909H983.182V727ZM1028.64 727H1032.73V727.909H1028.64V732H1027.73V727.909H1023.64V727H1027.73V722.909H1028.64V727ZM1074.09 727H1078.18V727.909H1074.09V732H1073.18V727.909H1069.09V727H1073.18V722.909H1074.09V727ZM1119.54 727H1123.64V727.909H1119.54V732H1118.64V727.909H1114.55V727H1118.64V722.909H1119.54V727ZM1165 727H1169.09V727.909H1165V732H1164.09V727.909H1160V727H1164.09V722.909H1165V727ZM1210.45 727H1214.55V727.909H1210.45V732H1209.54V727.909H1205.45V727H1209.54V722.909H1210.45V727ZM1255.91 727H1260V727.909H1255.91V732H1255V727.909H1250.91V727H1255V722.909H1255.91V727ZM1305 722.909V727H1309.09V727.909H1305V732H1304.09V727.909H1300V727H1304.09V722.909H1305ZM1350.45 722.909V727H1354.55V727.909H1350.45V732H1349.54V727.909H1345.45V727H1349.54V722.909H1350.45ZM1395.91 722.909V727H1400V727.909H1395.91V732H1395V727.909H1390.91V727H1395V722.909H1395.91ZM1441.36 722.909V727H1445.45V727.909H1441.36V732H1440.45V727.909H1436.36V727H1440.45V722.909H1441.36ZM1486.82 722.909V727H1490.91V727.909H1486.82V732H1485.91V727.909H1481.82V727H1485.91V722.909H1486.82ZM1532.27 722.909V727H1536.36V727.909H1532.27V732H1531.36V727.909H1527.27V727H1531.36V722.909H1532.27ZM1577.73 722.909V727H1581.82V727.909H1577.73V732H1576.82V727.909H1572.73V727H1576.82V722.909H1577.73ZM1623.18 722.909V727H1627.27V727.909H1623.18V732H1622.27V727.909H1618.18V727H1622.27V722.909H1623.18ZM1668.64 722.909V727H1672.73V727.909H1668.64V732H1667.73V727.909H1663.64V727H1667.73V722.909H1668.64ZM1714.09 722.909V727H1718.18V727.909H1714.09V732H1713.18V727.909H1709.09V727H1713.18V722.909H1714.09ZM1759.54 722.909V727H1763.64V727.909H1759.54V732H1758.64V727.909H1754.55V727H1758.64V722.909H1759.54ZM1805 722.909V727H1809.09V727.909H1805V732H1804.09V727.909H1800V727H1804.09V722.909H1805ZM1850.45 722.909V727H1854.55V727.909H1850.45V732H1849.54V727.909H1845.45V727H1849.54V722.909H1850.45ZM1895.91 722.909V727H1900V727.909H1895.91V732H1895V727.909H1890.91V727H1895V722.909H1895.91ZM25 681.546H29.0908V682.454H25V686.546H24.0908V682.454H20V681.546H24.0908V677.454H25V681.546ZM70.4541 681.546H74.5459V682.454H70.4541V686.546H69.5449V682.454H65.4541V681.546H69.5449V677.454H70.4541V681.546ZM115.909 681.546H120V682.454H115.909V686.546H115V682.454H110.909V681.546H115V677.454H115.909V681.546ZM161.363 681.546H165.454V682.454H161.363V686.546H160.454V682.454H156.363V681.546H160.454V677.454H161.363V681.546ZM206.818 681.546H210.909V682.454H206.818V686.546H205.909V682.454H201.818V681.546H205.909V677.454H206.818V681.546ZM252.272 681.546H256.363V682.454H252.272V686.546H251.363V682.454H247.272V681.546H251.363V677.454H252.272V681.546ZM297.728 681.546H301.818V682.454H297.728V686.546H296.818V682.454H292.728V681.546H296.818V677.454H297.728V681.546ZM343.182 681.546H347.272V682.454H343.182V686.546H342.272V682.454H338.182V681.546H342.272V677.454H343.182V681.546ZM388.637 681.546H392.728V682.454H388.637V686.546H387.728V682.454H383.637V681.546H387.728V677.454H388.637V681.546ZM434.091 681.546H438.182V682.454H434.091V686.546H433.182V682.454H429.091V681.546H433.182V677.454H434.091V681.546ZM479.545 681.546H483.637V682.454H479.545V686.546H478.637V682.454H474.546V681.546H478.637V677.454H479.545V681.546ZM525 681.546H529.091V682.454H525V686.546H524.091V682.454H520V681.546H524.091V677.454H525V681.546ZM570.454 681.546H574.546V682.454H570.454V686.546H569.545V682.454H565.454V681.546H569.545V677.454H570.454V681.546ZM615.909 681.546H620V682.454H615.909V686.546H615V682.454H610.909V681.546H615V677.454H615.909V681.546ZM665 681.546H669.091V682.454H665V686.546H664.091V682.454H660V681.546H664.091V677.454H665V681.546ZM710.454 681.546H714.546V682.454H710.454V686.546H709.545V682.454H705.454V681.546H709.545V677.454H710.454V681.546ZM755.909 681.546H760V682.454H755.909V686.546H755V682.454H750.909V681.546H755V677.454H755.909V681.546ZM801.363 681.546H805.454V682.454H801.363V686.546H800.454V682.454H796.363V681.546H800.454V677.454H801.363V681.546ZM846.818 681.546H850.909V682.454H846.818V686.546H845.909V682.454H841.818V681.546H845.909V677.454H846.818V681.546ZM892.272 681.546H896.363V682.454H892.272V686.546H891.363V682.454H887.272V681.546H891.363V677.454H892.272V681.546ZM937.728 681.546H941.818V682.454H937.728V686.546H936.818V682.454H932.728V681.546H936.818V677.454H937.728V681.546ZM983.182 681.546H987.272V682.454H983.182V686.546H982.272V682.454H978.182V681.546H982.272V677.454H983.182V681.546ZM1028.64 681.546H1032.73V682.454H1028.64V686.546H1027.73V682.454H1023.64V681.546H1027.73V677.454H1028.64V681.546ZM1074.09 681.546H1078.18V682.454H1074.09V686.546H1073.18V682.454H1069.09V681.546H1073.18V677.454H1074.09V681.546ZM1119.54 681.546H1123.64V682.454H1119.54V686.546H1118.64V682.454H1114.55V681.546H1118.64V677.454H1119.54V681.546ZM1165 681.546H1169.09V682.454H1165V686.546H1164.09V682.454H1160V681.546H1164.09V677.454H1165V681.546ZM1210.45 681.546H1214.55V682.454H1210.45V686.546H1209.54V682.454H1205.45V681.546H1209.54V677.454H1210.45V681.546ZM1255.91 681.546H1260V682.454H1255.91V686.546H1255V682.454H1250.91V681.546H1255V677.454H1255.91V681.546ZM1305 677.454V681.546H1309.09V682.454H1305V686.546H1304.09V682.454H1300V681.546H1304.09V677.454H1305ZM1350.45 677.454V681.546H1354.55V682.454H1350.45V686.546H1349.54V682.454H1345.45V681.546H1349.54V677.454H1350.45ZM1395.91 677.454V681.546H1400V682.454H1395.91V686.546H1395V682.454H1390.91V681.546H1395V677.454H1395.91ZM1441.36 677.454V681.546H1445.45V682.454H1441.36V686.546H1440.45V682.454H1436.36V681.546H1440.45V677.454H1441.36ZM1486.82 677.454V681.546H1490.91V682.454H1486.82V686.546H1485.91V682.454H1481.82V681.546H1485.91V677.454H1486.82ZM1532.27 677.454V681.546H1536.36V682.454H1532.27V686.546H1531.36V682.454H1527.27V681.546H1531.36V677.454H1532.27ZM1577.73 677.454V681.546H1581.82V682.454H1577.73V686.546H1576.82V682.454H1572.73V681.546H1576.82V677.454H1577.73ZM1623.18 677.454V681.546H1627.27V682.454H1623.18V686.546H1622.27V682.454H1618.18V681.546H1622.27V677.454H1623.18ZM1668.64 677.454V681.546H1672.73V682.454H1668.64V686.546H1667.73V682.454H1663.64V681.546H1667.73V677.454H1668.64ZM1714.09 677.454V681.546H1718.18V682.454H1714.09V686.546H1713.18V682.454H1709.09V681.546H1713.18V677.454H1714.09ZM1759.54 677.454V681.546H1763.64V682.454H1759.54V686.546H1758.64V682.454H1754.55V681.546H1758.64V677.454H1759.54ZM1805 677.454V681.546H1809.09V682.454H1805V686.546H1804.09V682.454H1800V681.546H1804.09V677.454H1805ZM1850.45 677.454V681.546H1854.55V682.454H1850.45V686.546H1849.54V682.454H1845.45V681.546H1849.54V677.454H1850.45ZM1895.91 677.454V681.546H1900V682.454H1895.91V686.546H1895V682.454H1890.91V681.546H1895V677.454H1895.91ZM25 636.091H29.0908V637H25V641.091H24.0908V637H20V636.091H24.0908V632H25V636.091ZM70.4541 636.091H74.5459V637H70.4541V641.091H69.5449V637H65.4541V636.091H69.5449V632H70.4541V636.091ZM115.909 636.091H120V637H115.909V641.091H115V637H110.909V636.091H115V632H115.909V636.091ZM161.363 636.091H165.454V637H161.363V641.091H160.454V637H156.363V636.091H160.454V632H161.363V636.091ZM206.818 636.091H210.909V637H206.818V641.091H205.909V637H201.818V636.091H205.909V632H206.818V636.091ZM252.272 636.091H256.363V637H252.272V641.091H251.363V637H247.272V636.091H251.363V632H252.272V636.091ZM297.728 636.091H301.818V637H297.728V641.091H296.818V637H292.728V636.091H296.818V632H297.728V636.091ZM343.182 636.091H347.272V637H343.182V641.091H342.272V637H338.182V636.091H342.272V632H343.182V636.091ZM388.637 636.091H392.728V637H388.637V641.091H387.728V637H383.637V636.091H387.728V632H388.637V636.091ZM434.091 636.091H438.182V637H434.091V641.091H433.182V637H429.091V636.091H433.182V632H434.091V636.091ZM479.545 636.091H483.637V637H479.545V641.091H478.637V637H474.546V636.091H478.637V632H479.545V636.091ZM525 636.091H529.091V637H525V641.091H524.091V637H520V636.091H524.091V632H525V636.091ZM570.454 636.091H574.546V637H570.454V641.091H569.545V637H565.454V636.091H569.545V632H570.454V636.091ZM615.909 636.091H620V637H615.909V641.091H615V637H610.909V636.091H615V632H615.909V636.091ZM665 636.091H669.091V637H665V641.091H664.091V637H660V636.091H664.091V632H665V636.091ZM710.454 636.091H714.546V637H710.454V641.091H709.545V637H705.454V636.091H709.545V632H710.454V636.091ZM755.909 636.091H760V637H755.909V641.091H755V637H750.909V636.091H755V632H755.909V636.091ZM801.363 636.091H805.454V637H801.363V641.091H800.454V637H796.363V636.091H800.454V632H801.363V636.091ZM846.818 636.091H850.909V637H846.818V641.091H845.909V637H841.818V636.091H845.909V632H846.818V636.091ZM892.272 636.091H896.363V637H892.272V641.091H891.363V637H887.272V636.091H891.363V632H892.272V636.091ZM937.728 636.091H941.818V637H937.728V641.091H936.818V637H932.728V636.091H936.818V632H937.728V636.091ZM983.182 636.091H987.272V637H983.182V641.091H982.272V637H978.182V636.091H982.272V632H983.182V636.091ZM1028.64 636.091H1032.73V637H1028.64V641.091H1027.73V637H1023.64V636.091H1027.73V632H1028.64V636.091ZM1074.09 636.091H1078.18V637H1074.09V641.091H1073.18V637H1069.09V636.091H1073.18V632H1074.09V636.091ZM1119.54 636.091H1123.64V637H1119.54V641.091H1118.64V637H1114.55V636.091H1118.64V632H1119.54V636.091ZM1165 636.091H1169.09V637H1165V641.091H1164.09V637H1160V636.091H1164.09V632H1165V636.091ZM1210.45 636.091H1214.55V637H1210.45V641.091H1209.54V637H1205.45V636.091H1209.54V632H1210.45V636.091ZM1255.91 636.091H1260V637H1255.91V641.091H1255V637H1250.91V636.091H1255V632H1255.91V636.091ZM1305 632V636.091H1309.09V637H1305V641.091H1304.09V637H1300V636.091H1304.09V632H1305ZM1350.45 632V636.091H1354.55V637H1350.45V641.091H1349.54V637H1345.45V636.091H1349.54V632H1350.45ZM1395.91 632V636.091H1400V637H1395.91V641.091H1395V637H1390.91V636.091H1395V632H1395.91ZM1441.36 632V636.091H1445.45V637H1441.36V641.091H1440.45V637H1436.36V636.091H1440.45V632H1441.36ZM1486.82 632V636.091H1490.91V637H1486.82V641.091H1485.91V637H1481.82V636.091H1485.91V632H1486.82ZM1532.27 632V636.091H1536.36V637H1532.27V641.091H1531.36V637H1527.27V636.091H1531.36V632H1532.27ZM1577.73 632V636.091H1581.82V637H1577.73V641.091H1576.82V637H1572.73V636.091H1576.82V632H1577.73ZM1623.18 632V636.091H1627.27V637H1623.18V641.091H1622.27V637H1618.18V636.091H1622.27V632H1623.18ZM1668.64 632V636.091H1672.73V637H1668.64V641.091H1667.73V637H1663.64V636.091H1667.73V632H1668.64ZM1714.09 632V636.091H1718.18V637H1714.09V641.091H1713.18V637H1709.09V636.091H1713.18V632H1714.09ZM1759.54 632V636.091H1763.64V637H1759.54V641.091H1758.64V637H1754.55V636.091H1758.64V632H1759.54ZM1805 632V636.091H1809.09V637H1805V641.091H1804.09V637H1800V636.091H1804.09V632H1805ZM1850.45 632V636.091H1854.55V637H1850.45V641.091H1849.54V637H1845.45V636.091H1849.54V632H1850.45ZM1895.91 632V636.091H1900V637H1895.91V641.091H1895V637H1890.91V636.091H1895V632H1895.91ZM25 595H29.0908V595.909H25V600H24.0908V595.909H20V595H24.0908V590.909H25V595ZM70.4541 595H74.5459V595.909H70.4541V600H69.5449V595.909H65.4541V595H69.5449V590.909H70.4541V595ZM115.909 595H120V595.909H115.909V600H115V595.909H110.909V595H115V590.909H115.909V595ZM161.363 595H165.454V595.909H161.363V600H160.454V595.909H156.363V595H160.454V590.909H161.363V595ZM206.818 595H210.909V595.909H206.818V600H205.909V595.909H201.818V595H205.909V590.909H206.818V595ZM252.272 595H256.363V595.909H252.272V600H251.363V595.909H247.272V595H251.363V590.909H252.272V595ZM297.728 595H301.818V595.909H297.728V600H296.818V595.909H292.728V595H296.818V590.909H297.728V595ZM343.182 595H347.272V595.909H343.182V600H342.272V595.909H338.182V595H342.272V590.909H343.182V595ZM388.637 595H392.728V595.909H388.637V600H387.728V595.909H383.637V595H387.728V590.909H388.637V595ZM434.091 595H438.182V595.909H434.091V600H433.182V595.909H429.091V595H433.182V590.909H434.091V595ZM479.545 595H483.637V595.909H479.545V600H478.637V595.909H474.546V595H478.637V590.909H479.545V595ZM525 595H529.091V595.909H525V600H524.091V595.909H520V595H524.091V590.909H525V595ZM570.454 595H574.546V595.909H570.454V600H569.545V595.909H565.454V595H569.545V590.909H570.454V595ZM615.909 595H620V595.909H615.909V600H615V595.909H610.909V595H615V590.909H615.909V595ZM665 595H669.091V595.909H665V600H664.091V595.909H660V595H664.091V590.909H665V595ZM710.454 595H714.546V595.909H710.454V600H709.545V595.909H705.454V595H709.545V590.909H710.454V595ZM755.909 595H760V595.909H755.909V600H755V595.909H750.909V595H755V590.909H755.909V595ZM801.363 595H805.454V595.909H801.363V600H800.454V595.909H796.363V595H800.454V590.909H801.363V595ZM846.818 595H850.909V595.909H846.818V600H845.909V595.909H841.818V595H845.909V590.909H846.818V595ZM892.272 595H896.363V595.909H892.272V600H891.363V595.909H887.272V595H891.363V590.909H892.272V595ZM937.728 595H941.818V595.909H937.728V600H936.818V595.909H932.728V595H936.818V590.909H937.728V595ZM983.182 595H987.272V595.909H983.182V600H982.272V595.909H978.182V595H982.272V590.909H983.182V595ZM1028.64 595H1032.73V595.909H1028.64V600H1027.73V595.909H1023.64V595H1027.73V590.909H1028.64V595ZM1074.09 595H1078.18V595.909H1074.09V600H1073.18V595.909H1069.09V595H1073.18V590.909H1074.09V595ZM1119.54 595H1123.64V595.909H1119.54V600H1118.64V595.909H1114.55V595H1118.64V590.909H1119.54V595ZM1165 595H1169.09V595.909H1165V600H1164.09V595.909H1160V595H1164.09V590.909H1165V595ZM1210.45 595H1214.55V595.909H1210.45V600H1209.54V595.909H1205.45V595H1209.54V590.909H1210.45V595ZM1255.91 595H1260V595.909H1255.91V600H1255V595.909H1250.91V595H1255V590.909H1255.91V595ZM1305 595H1309.09V595.909H1305V600H1304.09V595.909H1300V595H1304.09V590.909H1305V595ZM1350.45 595H1354.55V595.909H1350.45V600H1349.54V595.909H1345.45V595H1349.54V590.909H1350.45V595ZM1395.91 595H1400V595.909H1395.91V600H1395V595.909H1390.91V595H1395V590.909H1395.91V595ZM1441.36 595H1445.45V595.909H1441.36V600H1440.45V595.909H1436.36V595H1440.45V590.909H1441.36V595ZM1486.82 595H1490.91V595.909H1486.82V600H1485.91V595.909H1481.82V595H1485.91V590.909H1486.82V595ZM1532.27 595H1536.36V595.909H1532.27V600H1531.36V595.909H1527.27V595H1531.36V590.909H1532.27V595ZM1577.73 595H1581.82V595.909H1577.73V600H1576.82V595.909H1572.73V595H1576.82V590.909H1577.73V595ZM1623.18 595H1627.27V595.909H1623.18V600H1622.27V595.909H1618.18V595H1622.27V590.909H1623.18V595ZM1668.64 595H1672.73V595.909H1668.64V600H1667.73V595.909H1663.64V595H1667.73V590.909H1668.64V595ZM1714.09 595H1718.18V595.909H1714.09V600H1713.18V595.909H1709.09V595H1713.18V590.909H1714.09V595ZM1759.54 595H1763.64V595.909H1759.54V600H1758.64V595.909H1754.55V595H1758.64V590.909H1759.54V595ZM1805 595H1809.09V595.909H1805V600H1804.09V595.909H1800V595H1804.09V590.909H1805V595ZM1850.45 595H1854.55V595.909H1850.45V600H1849.54V595.909H1845.45V595H1849.54V590.909H1850.45V595ZM1895.91 595H1900V595.909H1895.91V600H1895V595.909H1890.91V595H1895V590.909H1895.91V595ZM25 549.546H29.0908V550.454H25V554.546H24.0908V550.454H20V549.546H24.0908V545.454H25V549.546ZM70.4541 549.546H74.5459V550.454H70.4541V554.546H69.5449V550.454H65.4541V549.546H69.5449V545.454H70.4541V549.546ZM115.909 549.546H120V550.454H115.909V554.546H115V550.454H110.909V549.546H115V545.454H115.909V549.546ZM161.363 549.546H165.454V550.454H161.363V554.546H160.454V550.454H156.363V549.546H160.454V545.454H161.363V549.546ZM206.818 549.546H210.909V550.454H206.818V554.546H205.909V550.454H201.818V549.546H205.909V545.454H206.818V549.546ZM252.272 549.546H256.363V550.454H252.272V554.546H251.363V550.454H247.272V549.546H251.363V545.454H252.272V549.546ZM297.728 549.546H301.818V550.454H297.728V554.546H296.818V550.454H292.728V549.546H296.818V545.454H297.728V549.546ZM343.182 549.546H347.272V550.454H343.182V554.546H342.272V550.454H338.182V549.546H342.272V545.454H343.182V549.546ZM388.637 549.546H392.728V550.454H388.637V554.546H387.728V550.454H383.637V549.546H387.728V545.454H388.637V549.546ZM434.091 549.546H438.182V550.454H434.091V554.546H433.182V550.454H429.091V549.546H433.182V545.454H434.091V549.546ZM479.545 549.546H483.637V550.454H479.545V554.546H478.637V550.454H474.546V549.546H478.637V545.454H479.545V549.546ZM525 549.546H529.091V550.454H525V554.546H524.091V550.454H520V549.546H524.091V545.454H525V549.546ZM570.454 549.546H574.546V550.454H570.454V554.546H569.545V550.454H565.454V549.546H569.545V545.454H570.454V549.546ZM615.909 549.546H620V550.454H615.909V554.546H615V550.454H610.909V549.546H615V545.454H615.909V549.546ZM665 549.546H669.091V550.454H665V554.546H664.091V550.454H660V549.546H664.091V545.454H665V549.546ZM710.454 549.546H714.546V550.454H710.454V554.546H709.545V550.454H705.454V549.546H709.545V545.454H710.454V549.546ZM755.909 549.546H760V550.454H755.909V554.546H755V550.454H750.909V549.546H755V545.454H755.909V549.546ZM801.363 549.546H805.454V550.454H801.363V554.546H800.454V550.454H796.363V549.546H800.454V545.454H801.363V549.546ZM846.818 549.546H850.909V550.454H846.818V554.546H845.909V550.454H841.818V549.546H845.909V545.454H846.818V549.546ZM892.272 549.546H896.363V550.454H892.272V554.546H891.363V550.454H887.272V549.546H891.363V545.454H892.272V549.546ZM937.728 549.546H941.818V550.454H937.728V554.546H936.818V550.454H932.728V549.546H936.818V545.454H937.728V549.546ZM983.182 549.546H987.272V550.454H983.182V554.546H982.272V550.454H978.182V549.546H982.272V545.454H983.182V549.546ZM1028.64 549.546H1032.73V550.454H1028.64V554.546H1027.73V550.454H1023.64V549.546H1027.73V545.454H1028.64V549.546ZM1074.09 549.546H1078.18V550.454H1074.09V554.546H1073.18V550.454H1069.09V549.546H1073.18V545.454H1074.09V549.546ZM1119.54 549.546H1123.64V550.454H1119.54V554.546H1118.64V550.454H1114.55V549.546H1118.64V545.454H1119.54V549.546ZM1165 549.546H1169.09V550.454H1165V554.546H1164.09V550.454H1160V549.546H1164.09V545.454H1165V549.546ZM1210.45 549.546H1214.55V550.454H1210.45V554.546H1209.54V550.454H1205.45V549.546H1209.54V545.454H1210.45V549.546ZM1255.91 549.546H1260V550.454H1255.91V554.546H1255V550.454H1250.91V549.546H1255V545.454H1255.91V549.546ZM1305 549.546H1309.09V550.454H1305V554.546H1304.09V550.454H1300V549.546H1304.09V545.454H1305V549.546ZM1350.45 549.546H1354.55V550.454H1350.45V554.546H1349.54V550.454H1345.45V549.546H1349.54V545.454H1350.45V549.546ZM1395.91 549.546H1400V550.454H1395.91V554.546H1395V550.454H1390.91V549.546H1395V545.454H1395.91V549.546ZM1441.36 549.546H1445.45V550.454H1441.36V554.546H1440.45V550.454H1436.36V549.546H1440.45V545.454H1441.36V549.546ZM1486.82 549.546H1490.91V550.454H1486.82V554.546H1485.91V550.454H1481.82V549.546H1485.91V545.454H1486.82V549.546ZM1532.27 549.546H1536.36V550.454H1532.27V554.546H1531.36V550.454H1527.27V549.546H1531.36V545.454H1532.27V549.546ZM1577.73 549.546H1581.82V550.454H1577.73V554.546H1576.82V550.454H1572.73V549.546H1576.82V545.454H1577.73V549.546ZM1623.18 549.546H1627.27V550.454H1623.18V554.546H1622.27V550.454H1618.18V549.546H1622.27V545.454H1623.18V549.546ZM1668.64 549.546H1672.73V550.454H1668.64V554.546H1667.73V550.454H1663.64V549.546H1667.73V545.454H1668.64V549.546ZM1714.09 549.546H1718.18V550.454H1714.09V554.546H1713.18V550.454H1709.09V549.546H1713.18V545.454H1714.09V549.546ZM1759.54 549.546H1763.64V550.454H1759.54V554.546H1758.64V550.454H1754.55V549.546H1758.64V545.454H1759.54V549.546ZM1805 549.546H1809.09V550.454H1805V554.546H1804.09V550.454H1800V549.546H1804.09V545.454H1805V549.546ZM1850.45 549.546H1854.55V550.454H1850.45V554.546H1849.54V550.454H1845.45V549.546H1849.54V545.454H1850.45V549.546ZM1895.91 549.546H1900V550.454H1895.91V554.546H1895V550.454H1890.91V549.546H1895V545.454H1895.91V549.546ZM25 504.091H29.0908V505H25V509.091H24.0908V505H20V504.091H24.0908V500H25V504.091ZM70.4541 504.091H74.5459V505H70.4541V509.091H69.5449V505H65.4541V504.091H69.5449V500H70.4541V504.091ZM115.909 504.091H120V505H115.909V509.091H115V505H110.909V504.091H115V500H115.909V504.091ZM161.363 504.091H165.454V505H161.363V509.091H160.454V505H156.363V504.091H160.454V500H161.363V504.091ZM206.818 504.091H210.909V505H206.818V509.091H205.909V505H201.818V504.091H205.909V500H206.818V504.091ZM252.272 504.091H256.363V505H252.272V509.091H251.363V505H247.272V504.091H251.363V500H252.272V504.091ZM297.728 504.091H301.818V505H297.728V509.091H296.818V505H292.728V504.091H296.818V500H297.728V504.091ZM343.182 504.091H347.272V505H343.182V509.091H342.272V505H338.182V504.091H342.272V500H343.182V504.091ZM388.637 504.091H392.728V505H388.637V509.091H387.728V505H383.637V504.091H387.728V500H388.637V504.091ZM434.091 504.091H438.182V505H434.091V509.091H433.182V505H429.091V504.091H433.182V500H434.091V504.091ZM479.545 504.091H483.637V505H479.545V509.091H478.637V505H474.546V504.091H478.637V500H479.545V504.091ZM525 504.091H529.091V505H525V509.091H524.091V505H520V504.091H524.091V500H525V504.091ZM570.454 504.091H574.546V505H570.454V509.091H569.545V505H565.454V504.091H569.545V500H570.454V504.091ZM615.909 504.091H620V505H615.909V509.091H615V505H610.909V504.091H615V500H615.909V504.091ZM665 504.091H669.091V505H665V509.091H664.091V505H660V504.091H664.091V500H665V504.091ZM710.454 504.091H714.546V505H710.454V509.091H709.545V505H705.454V504.091H709.545V500H710.454V504.091ZM755.909 504.091H760V505H755.909V509.091H755V505H750.909V504.091H755V500H755.909V504.091ZM801.363 504.091H805.454V505H801.363V509.091H800.454V505H796.363V504.091H800.454V500H801.363V504.091ZM846.818 504.091H850.909V505H846.818V509.091H845.909V505H841.818V504.091H845.909V500H846.818V504.091ZM892.272 504.091H896.363V505H892.272V509.091H891.363V505H887.272V504.091H891.363V500H892.272V504.091ZM937.728 504.091H941.818V505H937.728V509.091H936.818V505H932.728V504.091H936.818V500H937.728V504.091ZM983.182 504.091H987.272V505H983.182V509.091H982.272V505H978.182V504.091H982.272V500H983.182V504.091ZM1028.64 504.091H1032.73V505H1028.64V509.091H1027.73V505H1023.64V504.091H1027.73V500H1028.64V504.091ZM1074.09 504.091H1078.18V505H1074.09V509.091H1073.18V505H1069.09V504.091H1073.18V500H1074.09V504.091ZM1119.54 504.091H1123.64V505H1119.54V509.091H1118.64V505H1114.55V504.091H1118.64V500H1119.54V504.091ZM1165 504.091H1169.09V505H1165V509.091H1164.09V505H1160V504.091H1164.09V500H1165V504.091ZM1210.45 504.091H1214.55V505H1210.45V509.091H1209.54V505H1205.45V504.091H1209.54V500H1210.45V504.091ZM1255.91 504.091H1260V505H1255.91V509.091H1255V505H1250.91V504.091H1255V500H1255.91V504.091ZM1305 504.091H1309.09V505H1305V509.091H1304.09V505H1300V504.091H1304.09V500H1305V504.091ZM1350.45 504.091H1354.55V505H1350.45V509.091H1349.54V505H1345.45V504.091H1349.54V500H1350.45V504.091ZM1395.91 504.091H1400V505H1395.91V509.091H1395V505H1390.91V504.091H1395V500H1395.91V504.091ZM1441.36 504.091H1445.45V505H1441.36V509.091H1440.45V505H1436.36V504.091H1440.45V500H1441.36V504.091ZM1486.82 504.091H1490.91V505H1486.82V509.091H1485.91V505H1481.82V504.091H1485.91V500H1486.82V504.091ZM1532.27 504.091H1536.36V505H1532.27V509.091H1531.36V505H1527.27V504.091H1531.36V500H1532.27V504.091ZM1577.73 504.091H1581.82V505H1577.73V509.091H1576.82V505H1572.73V504.091H1576.82V500H1577.73V504.091ZM1623.18 504.091H1627.27V505H1623.18V509.091H1622.27V505H1618.18V504.091H1622.27V500H1623.18V504.091ZM1668.64 504.091H1672.73V505H1668.64V509.091H1667.73V505H1663.64V504.091H1667.73V500H1668.64V504.091ZM1714.09 504.091H1718.18V505H1714.09V509.091H1713.18V505H1709.09V504.091H1713.18V500H1714.09V504.091ZM1759.54 504.091H1763.64V505H1759.54V509.091H1758.64V505H1754.55V504.091H1758.64V500H1759.54V504.091ZM1805 504.091H1809.09V505H1805V509.091H1804.09V505H1800V504.091H1804.09V500H1805V504.091ZM1850.45 504.091H1854.55V505H1850.45V509.091H1849.54V505H1845.45V504.091H1849.54V500H1850.45V504.091ZM1895.91 504.091H1900V505H1895.91V509.091H1895V505H1890.91V504.091H1895V500H1895.91V504.091ZM25 458.637H29.0908V459.546H25V463.637H24.0908V459.546H20V458.637H24.0908V454.546H25V458.637ZM70.4541 458.637H74.5459V459.546H70.4541V463.637H69.5449V459.546H65.4541V458.637H69.5449V454.546H70.4541V458.637ZM115.909 458.637H120V459.546H115.909V463.637H115V459.546H110.909V458.637H115V454.546H115.909V458.637ZM161.363 458.637H165.454V459.546H161.363V463.637H160.454V459.546H156.363V458.637H160.454V454.546H161.363V458.637ZM206.818 458.637H210.909V459.546H206.818V463.637H205.909V459.546H201.818V458.637H205.909V454.546H206.818V458.637ZM252.272 458.637H256.363V459.546H252.272V463.637H251.363V459.546H247.272V458.637H251.363V454.546H252.272V458.637ZM297.728 458.637H301.818V459.546H297.728V463.637H296.818V459.546H292.728V458.637H296.818V454.546H297.728V458.637ZM343.182 458.637H347.272V459.546H343.182V463.637H342.272V459.546H338.182V458.637H342.272V454.546H343.182V458.637ZM388.637 458.637H392.728V459.546H388.637V463.637H387.728V459.546H383.637V458.637H387.728V454.546H388.637V458.637ZM434.091 458.637H438.182V459.546H434.091V463.637H433.182V459.546H429.091V458.637H433.182V454.546H434.091V458.637ZM479.545 458.637H483.637V459.546H479.545V463.637H478.637V459.546H474.546V458.637H478.637V454.546H479.545V458.637ZM525 458.637H529.091V459.546H525V463.637H524.091V459.546H520V458.637H524.091V454.546H525V458.637ZM570.454 458.637H574.546V459.546H570.454V463.637H569.545V459.546H565.454V458.637H569.545V454.546H570.454V458.637ZM615.909 458.637H620V459.546H615.909V463.637H615V459.546H610.909V458.637H615V454.546H615.909V458.637ZM665 458.637H669.091V459.546H665V463.637H664.091V459.546H660V458.637H664.091V454.546H665V458.637ZM710.454 458.637H714.546V459.546H710.454V463.637H709.545V459.546H705.454V458.637H709.545V454.546H710.454V458.637ZM755.909 458.637H760V459.546H755.909V463.637H755V459.546H750.909V458.637H755V454.546H755.909V458.637ZM801.363 458.637H805.454V459.546H801.363V463.637H800.454V459.546H796.363V458.637H800.454V454.546H801.363V458.637ZM846.818 458.637H850.909V459.546H846.818V463.637H845.909V459.546H841.818V458.637H845.909V454.546H846.818V458.637ZM892.272 458.637H896.363V459.546H892.272V463.637H891.363V459.546H887.272V458.637H891.363V454.546H892.272V458.637ZM937.728 458.637H941.818V459.546H937.728V463.637H936.818V459.546H932.728V458.637H936.818V454.546H937.728V458.637ZM983.182 458.637H987.272V459.546H983.182V463.637H982.272V459.546H978.182V458.637H982.272V454.546H983.182V458.637ZM1028.64 458.637H1032.73V459.546H1028.64V463.637H1027.73V459.546H1023.64V458.637H1027.73V454.546H1028.64V458.637ZM1074.09 458.637H1078.18V459.546H1074.09V463.637H1073.18V459.546H1069.09V458.637H1073.18V454.546H1074.09V458.637ZM1119.54 458.637H1123.64V459.546H1119.54V463.637H1118.64V459.546H1114.55V458.637H1118.64V454.546H1119.54V458.637ZM1165 458.637H1169.09V459.546H1165V463.637H1164.09V459.546H1160V458.637H1164.09V454.546H1165V458.637ZM1210.45 458.637H1214.55V459.546H1210.45V463.637H1209.54V459.546H1205.45V458.637H1209.54V454.546H1210.45V458.637ZM1255.91 458.637H1260V459.546H1255.91V463.637H1255V459.546H1250.91V458.637H1255V454.546H1255.91V458.637ZM1305 458.637H1309.09V459.546H1305V463.637H1304.09V459.546H1300V458.637H1304.09V454.546H1305V458.637ZM1350.45 458.637H1354.55V459.546H1350.45V463.637H1349.54V459.546H1345.45V458.637H1349.54V454.546H1350.45V458.637ZM1395.91 458.637H1400V459.546H1395.91V463.637H1395V459.546H1390.91V458.637H1395V454.546H1395.91V458.637ZM1441.36 458.637H1445.45V459.546H1441.36V463.637H1440.45V459.546H1436.36V458.637H1440.45V454.546H1441.36V458.637ZM1486.82 458.637H1490.91V459.546H1486.82V463.637H1485.91V459.546H1481.82V458.637H1485.91V454.546H1486.82V458.637ZM1532.27 458.637H1536.36V459.546H1532.27V463.637H1531.36V459.546H1527.27V458.637H1531.36V454.546H1532.27V458.637ZM1577.73 458.637H1581.82V459.546H1577.73V463.637H1576.82V459.546H1572.73V458.637H1576.82V454.546H1577.73V458.637ZM1623.18 458.637H1627.27V459.546H1623.18V463.637H1622.27V459.546H1618.18V458.637H1622.27V454.546H1623.18V458.637ZM1668.64 458.637H1672.73V459.546H1668.64V463.637H1667.73V459.546H1663.64V458.637H1667.73V454.546H1668.64V458.637ZM1714.09 458.637H1718.18V459.546H1714.09V463.637H1713.18V459.546H1709.09V458.637H1713.18V454.546H1714.09V458.637ZM1759.54 458.637H1763.64V459.546H1759.54V463.637H1758.64V459.546H1754.55V458.637H1758.64V454.546H1759.54V458.637ZM1805 458.637H1809.09V459.546H1805V463.637H1804.09V459.546H1800V458.637H1804.09V454.546H1805V458.637ZM1850.45 458.637H1854.55V459.546H1850.45V463.637H1849.54V459.546H1845.45V458.637H1849.54V454.546H1850.45V458.637ZM1895.91 458.637H1900V459.546H1895.91V463.637H1895V459.546H1890.91V458.637H1895V454.546H1895.91V458.637ZM207.272 412.728H215.454V414.546H207.272V422.728H205.454V414.546H197.272V412.728H205.454V404.546H207.272V412.728ZM434.546 412.728H442.728V414.546H434.546V422.728H432.728V414.546H424.546V412.728H432.728V404.546H434.546V412.728ZM847.272 412.728H855.454V414.546H847.272V422.728H845.454V414.546H837.272V412.728H845.454V404.546H847.272V412.728ZM1074.55 412.728H1082.73V414.546H1074.55V422.728H1072.73V414.546H1064.55V412.728H1072.73V404.546H1074.55V412.728ZM1487.27 412.728H1495.45V414.546H1487.27V422.728H1485.45V414.546H1477.27V412.728H1485.45V404.546H1487.27V412.728ZM1714.55 412.728H1722.73V414.546H1714.55V422.728H1712.73V414.546H1704.55V412.728H1712.73V404.546H1714.55V412.728ZM25 413.182H29.0908V414.091H25V418.182H24.0908V414.091H20V413.182H24.0908V409.091H25V413.182ZM70.4541 413.182H74.5459V414.091H70.4541V418.182H69.5449V414.091H65.4541V413.182H69.5449V409.091H70.4541V413.182ZM115.909 413.182H120V414.091H115.909V418.182H115V414.091H110.909V413.182H115V409.091H115.909V413.182ZM161.363 413.182H165.454V414.091H161.363V418.182H160.454V414.091H156.363V413.182H160.454V409.091H161.363V413.182ZM252.272 413.182H256.363V414.091H252.272V418.182H251.363V414.091H247.272V413.182H251.363V409.091H252.272V413.182ZM297.728 413.182H301.818V414.091H297.728V418.182H296.818V414.091H292.728V413.182H296.818V409.091H297.728V413.182ZM343.182 413.182H347.272V414.091H343.182V418.182H342.272V414.091H338.182V413.182H342.272V409.091H343.182V413.182ZM388.637 413.182H392.728V414.091H388.637V418.182H387.728V414.091H383.637V413.182H387.728V409.091H388.637V413.182ZM479.545 413.182H483.637V414.091H479.545V418.182H478.637V414.091H474.546V413.182H478.637V409.091H479.545V413.182ZM525 413.182H529.091V414.091H525V418.182H524.091V414.091H520V413.182H524.091V409.091H525V413.182ZM570.454 413.182H574.546V414.091H570.454V418.182H569.545V414.091H565.454V413.182H569.545V409.091H570.454V413.182ZM615.909 413.182H620V414.091H615.909V418.182H615V414.091H610.909V413.182H615V409.091H615.909V413.182ZM665 413.182H669.091V414.091H665V418.182H664.091V414.091H660V413.182H664.091V409.091H665V413.182ZM710.454 413.182H714.546V414.091H710.454V418.182H709.545V414.091H705.454V413.182H709.545V409.091H710.454V413.182ZM755.909 413.182H760V414.091H755.909V418.182H755V414.091H750.909V413.182H755V409.091H755.909V413.182ZM801.363 413.182H805.454V414.091H801.363V418.182H800.454V414.091H796.363V413.182H800.454V409.091H801.363V413.182ZM892.272 413.182H896.363V414.091H892.272V418.182H891.363V414.091H887.272V413.182H891.363V409.091H892.272V413.182ZM937.728 413.182H941.818V414.091H937.728V418.182H936.818V414.091H932.728V413.182H936.818V409.091H937.728V413.182ZM983.182 413.182H987.272V414.091H983.182V418.182H982.272V414.091H978.182V413.182H982.272V409.091H983.182V413.182ZM1028.64 413.182H1032.73V414.091H1028.64V418.182H1027.73V414.091H1023.64V413.182H1027.73V409.091H1028.64V413.182ZM1119.54 413.182H1123.64V414.091H1119.54V418.182H1118.64V414.091H1114.55V413.182H1118.64V409.091H1119.54V413.182ZM1165 413.182H1169.09V414.091H1165V418.182H1164.09V414.091H1160V413.182H1164.09V409.091H1165V413.182ZM1210.45 413.182H1214.55V414.091H1210.45V418.182H1209.54V414.091H1205.45V413.182H1209.54V409.091H1210.45V413.182ZM1255.91 413.182H1260V414.091H1255.91V418.182H1255V414.091H1250.91V413.182H1255V409.091H1255.91V413.182ZM1305 413.182H1309.09V414.091H1305V418.182H1304.09V414.091H1300V413.182H1304.09V409.091H1305V413.182ZM1350.45 413.182H1354.55V414.091H1350.45V418.182H1349.54V414.091H1345.45V413.182H1349.54V409.091H1350.45V413.182ZM1395.91 413.182H1400V414.091H1395.91V418.182H1395V414.091H1390.91V413.182H1395V409.091H1395.91V413.182ZM1441.36 413.182H1445.45V414.091H1441.36V418.182H1440.45V414.091H1436.36V413.182H1440.45V409.091H1441.36V413.182ZM1532.27 413.182H1536.36V414.091H1532.27V418.182H1531.36V414.091H1527.27V413.182H1531.36V409.091H1532.27V413.182ZM1577.73 413.182H1581.82V414.091H1577.73V418.182H1576.82V414.091H1572.73V413.182H1576.82V409.091H1577.73V413.182ZM1623.18 413.182H1627.27V414.091H1623.18V418.182H1622.27V414.091H1618.18V413.182H1622.27V409.091H1623.18V413.182ZM1668.64 413.182H1672.73V414.091H1668.64V418.182H1667.73V414.091H1663.64V413.182H1667.73V409.091H1668.64V413.182ZM1759.54 413.182H1763.64V414.091H1759.54V418.182H1758.64V414.091H1754.55V413.182H1758.64V409.091H1759.54V413.182ZM1805 413.182H1809.09V414.091H1805V418.182H1804.09V414.091H1800V413.182H1804.09V409.091H1805V413.182ZM1850.45 413.182H1854.55V414.091H1850.45V418.182H1849.54V414.091H1845.45V413.182H1849.54V409.091H1850.45V413.182ZM1895.91 413.182H1900V414.091H1895.91V418.182H1895V414.091H1890.91V413.182H1895V409.091H1895.91V413.182ZM25 367.728H29.0908V368.637H25V372.728H24.0908V368.637H20V367.728H24.0908V363.637H25V367.728ZM70.4541 367.728H74.5459V368.637H70.4541V372.728H69.5449V368.637H65.4541V367.728H69.5449V363.637H70.4541V367.728ZM115.909 367.728H120V368.637H115.909V372.728H115V368.637H110.909V367.728H115V363.637H115.909V367.728ZM161.363 367.728H165.454V368.637H161.363V372.728H160.454V368.637H156.363V367.728H160.454V363.637H161.363V367.728ZM206.818 367.728H210.909V368.637H206.818V372.728H205.909V368.637H201.818V367.728H205.909V363.637H206.818V367.728ZM252.272 367.728H256.363V368.637H252.272V372.728H251.363V368.637H247.272V367.728H251.363V363.637H252.272V367.728ZM297.728 367.728H301.818V368.637H297.728V372.728H296.818V368.637H292.728V367.728H296.818V363.637H297.728V367.728ZM343.182 367.728H347.272V368.637H343.182V372.728H342.272V368.637H338.182V367.728H342.272V363.637H343.182V367.728ZM388.637 367.728H392.728V368.637H388.637V372.728H387.728V368.637H383.637V367.728H387.728V363.637H388.637V367.728ZM434.091 367.728H438.182V368.637H434.091V372.728H433.182V368.637H429.091V367.728H433.182V363.637H434.091V367.728ZM479.545 367.728H483.637V368.637H479.545V372.728H478.637V368.637H474.546V367.728H478.637V363.637H479.545V367.728ZM525 367.728H529.091V368.637H525V372.728H524.091V368.637H520V367.728H524.091V363.637H525V367.728ZM570.454 367.728H574.546V368.637H570.454V372.728H569.545V368.637H565.454V367.728H569.545V363.637H570.454V367.728ZM615.909 367.728H620V368.637H615.909V372.728H615V368.637H610.909V367.728H615V363.637H615.909V367.728ZM665 367.728H669.091V368.637H665V372.728H664.091V368.637H660V367.728H664.091V363.637H665V367.728ZM710.454 367.728H714.546V368.637H710.454V372.728H709.545V368.637H705.454V367.728H709.545V363.637H710.454V367.728ZM755.909 367.728H760V368.637H755.909V372.728H755V368.637H750.909V367.728H755V363.637H755.909V367.728ZM801.363 367.728H805.454V368.637H801.363V372.728H800.454V368.637H796.363V367.728H800.454V363.637H801.363V367.728ZM846.818 367.728H850.909V368.637H846.818V372.728H845.909V368.637H841.818V367.728H845.909V363.637H846.818V367.728ZM892.272 367.728H896.363V368.637H892.272V372.728H891.363V368.637H887.272V367.728H891.363V363.637H892.272V367.728ZM937.728 367.728H941.818V368.637H937.728V372.728H936.818V368.637H932.728V367.728H936.818V363.637H937.728V367.728ZM983.182 367.728H987.272V368.637H983.182V372.728H982.272V368.637H978.182V367.728H982.272V363.637H983.182V367.728ZM1028.64 367.728H1032.73V368.637H1028.64V372.728H1027.73V368.637H1023.64V367.728H1027.73V363.637H1028.64V367.728ZM1074.09 367.728H1078.18V368.637H1074.09V372.728H1073.18V368.637H1069.09V367.728H1073.18V363.637H1074.09V367.728ZM1119.54 367.728H1123.64V368.637H1119.54V372.728H1118.64V368.637H1114.55V367.728H1118.64V363.637H1119.54V367.728ZM1165 367.728H1169.09V368.637H1165V372.728H1164.09V368.637H1160V367.728H1164.09V363.637H1165V367.728ZM1210.45 367.728H1214.55V368.637H1210.45V372.728H1209.54V368.637H1205.45V367.728H1209.54V363.637H1210.45V367.728ZM1255.91 367.728H1260V368.637H1255.91V372.728H1255V368.637H1250.91V367.728H1255V363.637H1255.91V367.728ZM1305 367.728H1309.09V368.637H1305V372.728H1304.09V368.637H1300V367.728H1304.09V363.637H1305V367.728ZM1350.45 367.728H1354.55V368.637H1350.45V372.728H1349.54V368.637H1345.45V367.728H1349.54V363.637H1350.45V367.728ZM1395.91 367.728H1400V368.637H1395.91V372.728H1395V368.637H1390.91V367.728H1395V363.637H1395.91V367.728ZM1441.36 367.728H1445.45V368.637H1441.36V372.728H1440.45V368.637H1436.36V367.728H1440.45V363.637H1441.36V367.728ZM1486.82 367.728H1490.91V368.637H1486.82V372.728H1485.91V368.637H1481.82V367.728H1485.91V363.637H1486.82V367.728ZM1532.27 367.728H1536.36V368.637H1532.27V372.728H1531.36V368.637H1527.27V367.728H1531.36V363.637H1532.27V367.728ZM1577.73 367.728H1581.82V368.637H1577.73V372.728H1576.82V368.637H1572.73V367.728H1576.82V363.637H1577.73V367.728ZM1623.18 367.728H1627.27V368.637H1623.18V372.728H1622.27V368.637H1618.18V367.728H1622.27V363.637H1623.18V367.728ZM1668.64 367.728H1672.73V368.637H1668.64V372.728H1667.73V368.637H1663.64V367.728H1667.73V363.637H1668.64V367.728ZM1714.09 367.728H1718.18V368.637H1714.09V372.728H1713.18V368.637H1709.09V367.728H1713.18V363.637H1714.09V367.728ZM1759.54 367.728H1763.64V368.637H1759.54V372.728H1758.64V368.637H1754.55V367.728H1758.64V363.637H1759.54V367.728ZM1805 367.728H1809.09V368.637H1805V372.728H1804.09V368.637H1800V367.728H1804.09V363.637H1805V367.728ZM1850.45 367.728H1854.55V368.637H1850.45V372.728H1849.54V368.637H1845.45V367.728H1849.54V363.637H1850.45V367.728ZM1895.91 367.728H1900V368.637H1895.91V372.728H1895V368.637H1890.91V367.728H1895V363.637H1895.91V367.728ZM25 322.272H29.0908V323.182H25V327.272H24.0908V323.182H20V322.272H24.0908V318.182H25V322.272ZM70.4541 322.272H74.5459V323.182H70.4541V327.272H69.5449V323.182H65.4541V322.272H69.5449V318.182H70.4541V322.272ZM115.909 322.272H120V323.182H115.909V327.272H115V323.182H110.909V322.272H115V318.182H115.909V322.272ZM161.363 322.272H165.454V323.182H161.363V327.272H160.454V323.182H156.363V322.272H160.454V318.182H161.363V322.272ZM206.818 322.272H210.909V323.182H206.818V327.272H205.909V323.182H201.818V322.272H205.909V318.182H206.818V322.272ZM252.272 322.272H256.363V323.182H252.272V327.272H251.363V323.182H247.272V322.272H251.363V318.182H252.272V322.272ZM297.728 322.272H301.818V323.182H297.728V327.272H296.818V323.182H292.728V322.272H296.818V318.182H297.728V322.272ZM343.182 322.272H347.272V323.182H343.182V327.272H342.272V323.182H338.182V322.272H342.272V318.182H343.182V322.272ZM388.637 322.272H392.728V323.182H388.637V327.272H387.728V323.182H383.637V322.272H387.728V318.182H388.637V322.272ZM434.091 322.272H438.182V323.182H434.091V327.272H433.182V323.182H429.091V322.272H433.182V318.182H434.091V322.272ZM479.545 322.272H483.637V323.182H479.545V327.272H478.637V323.182H474.546V322.272H478.637V318.182H479.545V322.272ZM525 322.272H529.091V323.182H525V327.272H524.091V323.182H520V322.272H524.091V318.182H525V322.272ZM570.454 322.272H574.546V323.182H570.454V327.272H569.545V323.182H565.454V322.272H569.545V318.182H570.454V322.272ZM615.909 322.272H620V323.182H615.909V327.272H615V323.182H610.909V322.272H615V318.182H615.909V322.272ZM665 322.272H669.091V323.182H665V327.272H664.091V323.182H660V322.272H664.091V318.182H665V322.272ZM710.454 322.272H714.546V323.182H710.454V327.272H709.545V323.182H705.454V322.272H709.545V318.182H710.454V322.272ZM755.909 322.272H760V323.182H755.909V327.272H755V323.182H750.909V322.272H755V318.182H755.909V322.272ZM801.363 322.272H805.454V323.182H801.363V327.272H800.454V323.182H796.363V322.272H800.454V318.182H801.363V322.272ZM846.818 322.272H850.909V323.182H846.818V327.272H845.909V323.182H841.818V322.272H845.909V318.182H846.818V322.272ZM892.272 322.272H896.363V323.182H892.272V327.272H891.363V323.182H887.272V322.272H891.363V318.182H892.272V322.272ZM937.728 322.272H941.818V323.182H937.728V327.272H936.818V323.182H932.728V322.272H936.818V318.182H937.728V322.272ZM983.182 322.272H987.272V323.182H983.182V327.272H982.272V323.182H978.182V322.272H982.272V318.182H983.182V322.272ZM1028.64 322.272H1032.73V323.182H1028.64V327.272H1027.73V323.182H1023.64V322.272H1027.73V318.182H1028.64V322.272ZM1074.09 322.272H1078.18V323.182H1074.09V327.272H1073.18V323.182H1069.09V322.272H1073.18V318.182H1074.09V322.272ZM1119.54 322.272H1123.64V323.182H1119.54V327.272H1118.64V323.182H1114.55V322.272H1118.64V318.182H1119.54V322.272ZM1165 322.272H1169.09V323.182H1165V327.272H1164.09V323.182H1160V322.272H1164.09V318.182H1165V322.272ZM1210.45 322.272H1214.55V323.182H1210.45V327.272H1209.54V323.182H1205.45V322.272H1209.54V318.182H1210.45V322.272ZM1255.91 322.272H1260V323.182H1255.91V327.272H1255V323.182H1250.91V322.272H1255V318.182H1255.91V322.272ZM1305 322.272H1309.09V323.182H1305V327.272H1304.09V323.182H1300V322.272H1304.09V318.182H1305V322.272ZM1350.45 322.272H1354.55V323.182H1350.45V327.272H1349.54V323.182H1345.45V322.272H1349.54V318.182H1350.45V322.272ZM1395.91 322.272H1400V323.182H1395.91V327.272H1395V323.182H1390.91V322.272H1395V318.182H1395.91V322.272ZM1441.36 322.272H1445.45V323.182H1441.36V327.272H1440.45V323.182H1436.36V322.272H1440.45V318.182H1441.36V322.272ZM1486.82 322.272H1490.91V323.182H1486.82V327.272H1485.91V323.182H1481.82V322.272H1485.91V318.182H1486.82V322.272ZM1532.27 322.272H1536.36V323.182H1532.27V327.272H1531.36V323.182H1527.27V322.272H1531.36V318.182H1532.27V322.272ZM1577.73 322.272H1581.82V323.182H1577.73V327.272H1576.82V323.182H1572.73V322.272H1576.82V318.182H1577.73V322.272ZM1623.18 322.272H1627.27V323.182H1623.18V327.272H1622.27V323.182H1618.18V322.272H1622.27V318.182H1623.18V322.272ZM1668.64 322.272H1672.73V323.182H1668.64V327.272H1667.73V323.182H1663.64V322.272H1667.73V318.182H1668.64V322.272ZM1714.09 322.272H1718.18V323.182H1714.09V327.272H1713.18V323.182H1709.09V322.272H1713.18V318.182H1714.09V322.272ZM1759.54 322.272H1763.64V323.182H1759.54V327.272H1758.64V323.182H1754.55V322.272H1758.64V318.182H1759.54V322.272ZM1805 322.272H1809.09V323.182H1805V327.272H1804.09V323.182H1800V322.272H1804.09V318.182H1805V322.272ZM1850.45 322.272H1854.55V323.182H1850.45V327.272H1849.54V323.182H1845.45V322.272H1849.54V318.182H1850.45V322.272ZM1895.91 322.272H1900V323.182H1895.91V327.272H1895V323.182H1890.91V322.272H1895V318.182H1895.91V322.272ZM25 276.818H29.0908V277.728H25V281.818H24.0908V277.728H20V276.818H24.0908V272.728H25V276.818ZM70.4541 276.818H74.5459V277.728H70.4541V281.818H69.5449V277.728H65.4541V276.818H69.5449V272.728H70.4541V276.818ZM115.909 276.818H120V277.728H115.909V281.818H115V277.728H110.909V276.818H115V272.728H115.909V276.818ZM161.363 276.818H165.454V277.728H161.363V281.818H160.454V277.728H156.363V276.818H160.454V272.728H161.363V276.818ZM206.818 276.818H210.909V277.728H206.818V281.818H205.909V277.728H201.818V276.818H205.909V272.728H206.818V276.818ZM252.272 276.818H256.363V277.728H252.272V281.818H251.363V277.728H247.272V276.818H251.363V272.728H252.272V276.818ZM297.728 276.818H301.818V277.728H297.728V281.818H296.818V277.728H292.728V276.818H296.818V272.728H297.728V276.818ZM343.182 276.818H347.272V277.728H343.182V281.818H342.272V277.728H338.182V276.818H342.272V272.728H343.182V276.818ZM388.637 276.818H392.728V277.728H388.637V281.818H387.728V277.728H383.637V276.818H387.728V272.728H388.637V276.818ZM434.091 276.818H438.182V277.728H434.091V281.818H433.182V277.728H429.091V276.818H433.182V272.728H434.091V276.818ZM479.545 276.818H483.637V277.728H479.545V281.818H478.637V277.728H474.546V276.818H478.637V272.728H479.545V276.818ZM525 276.818H529.091V277.728H525V281.818H524.091V277.728H520V276.818H524.091V272.728H525V276.818ZM570.454 276.818H574.546V277.728H570.454V281.818H569.545V277.728H565.454V276.818H569.545V272.728H570.454V276.818ZM615.909 276.818H620V277.728H615.909V281.818H615V277.728H610.909V276.818H615V272.728H615.909V276.818ZM665 276.818H669.091V277.728H665V281.818H664.091V277.728H660V276.818H664.091V272.728H665V276.818ZM710.454 276.818H714.546V277.728H710.454V281.818H709.545V277.728H705.454V276.818H709.545V272.728H710.454V276.818ZM755.909 276.818H760V277.728H755.909V281.818H755V277.728H750.909V276.818H755V272.728H755.909V276.818ZM801.363 276.818H805.454V277.728H801.363V281.818H800.454V277.728H796.363V276.818H800.454V272.728H801.363V276.818ZM846.818 276.818H850.909V277.728H846.818V281.818H845.909V277.728H841.818V276.818H845.909V272.728H846.818V276.818ZM892.272 276.818H896.363V277.728H892.272V281.818H891.363V277.728H887.272V276.818H891.363V272.728H892.272V276.818ZM937.728 276.818H941.818V277.728H937.728V281.818H936.818V277.728H932.728V276.818H936.818V272.728H937.728V276.818ZM983.182 276.818H987.272V277.728H983.182V281.818H982.272V277.728H978.182V276.818H982.272V272.728H983.182V276.818ZM1028.64 276.818H1032.73V277.728H1028.64V281.818H1027.73V277.728H1023.64V276.818H1027.73V272.728H1028.64V276.818ZM1074.09 276.818H1078.18V277.728H1074.09V281.818H1073.18V277.728H1069.09V276.818H1073.18V272.728H1074.09V276.818ZM1119.54 276.818H1123.64V277.728H1119.54V281.818H1118.64V277.728H1114.55V276.818H1118.64V272.728H1119.54V276.818ZM1165 276.818H1169.09V277.728H1165V281.818H1164.09V277.728H1160V276.818H1164.09V272.728H1165V276.818ZM1210.45 276.818H1214.55V277.728H1210.45V281.818H1209.54V277.728H1205.45V276.818H1209.54V272.728H1210.45V276.818ZM1255.91 276.818H1260V277.728H1255.91V281.818H1255V277.728H1250.91V276.818H1255V272.728H1255.91V276.818ZM1305 276.818H1309.09V277.728H1305V281.818H1304.09V277.728H1300V276.818H1304.09V272.728H1305V276.818ZM1350.45 276.818H1354.55V277.728H1350.45V281.818H1349.54V277.728H1345.45V276.818H1349.54V272.728H1350.45V276.818ZM1395.91 276.818H1400V277.728H1395.91V281.818H1395V277.728H1390.91V276.818H1395V272.728H1395.91V276.818ZM1441.36 276.818H1445.45V277.728H1441.36V281.818H1440.45V277.728H1436.36V276.818H1440.45V272.728H1441.36V276.818ZM1486.82 276.818H1490.91V277.728H1486.82V281.818H1485.91V277.728H1481.82V276.818H1485.91V272.728H1486.82V276.818ZM1532.27 276.818H1536.36V277.728H1532.27V281.818H1531.36V277.728H1527.27V276.818H1531.36V272.728H1532.27V276.818ZM1577.73 276.818H1581.82V277.728H1577.73V281.818H1576.82V277.728H1572.73V276.818H1576.82V272.728H1577.73V276.818ZM1623.18 276.818H1627.27V277.728H1623.18V281.818H1622.27V277.728H1618.18V276.818H1622.27V272.728H1623.18V276.818ZM1668.64 276.818H1672.73V277.728H1668.64V281.818H1667.73V277.728H1663.64V276.818H1667.73V272.728H1668.64V276.818ZM1714.09 276.818H1718.18V277.728H1714.09V281.818H1713.18V277.728H1709.09V276.818H1713.18V272.728H1714.09V276.818ZM1759.54 276.818H1763.64V277.728H1759.54V281.818H1758.64V277.728H1754.55V276.818H1758.64V272.728H1759.54V276.818ZM1805 276.818H1809.09V277.728H1805V281.818H1804.09V277.728H1800V276.818H1804.09V272.728H1805V276.818ZM1850.45 276.818H1854.55V277.728H1850.45V281.818H1849.54V277.728H1845.45V276.818H1849.54V272.728H1850.45V276.818ZM1895.91 276.818H1900V277.728H1895.91V281.818H1895V277.728H1890.91V276.818H1895V272.728H1895.91V276.818ZM25 231.363H29.0908V232.272H25V236.363H24.0908V232.272H20V231.363H24.0908V227.272H25V231.363ZM70.4541 231.363H74.5459V232.272H70.4541V236.363H69.5449V232.272H65.4541V231.363H69.5449V227.272H70.4541V231.363ZM115.909 231.363H120V232.272H115.909V236.363H115V232.272H110.909V231.363H115V227.272H115.909V231.363ZM161.363 231.363H165.454V232.272H161.363V236.363H160.454V232.272H156.363V231.363H160.454V227.272H161.363V231.363ZM206.818 231.363H210.909V232.272H206.818V236.363H205.909V232.272H201.818V231.363H205.909V227.272H206.818V231.363ZM252.272 231.363H256.363V232.272H252.272V236.363H251.363V232.272H247.272V231.363H251.363V227.272H252.272V231.363ZM297.728 231.363H301.818V232.272H297.728V236.363H296.818V232.272H292.728V231.363H296.818V227.272H297.728V231.363ZM343.182 231.363H347.272V232.272H343.182V236.363H342.272V232.272H338.182V231.363H342.272V227.272H343.182V231.363ZM388.637 231.363H392.728V232.272H388.637V236.363H387.728V232.272H383.637V231.363H387.728V227.272H388.637V231.363ZM434.091 231.363H438.182V232.272H434.091V236.363H433.182V232.272H429.091V231.363H433.182V227.272H434.091V231.363ZM479.545 231.363H483.637V232.272H479.545V236.363H478.637V232.272H474.546V231.363H478.637V227.272H479.545V231.363ZM525 231.363H529.091V232.272H525V236.363H524.091V232.272H520V231.363H524.091V227.272H525V231.363ZM570.454 231.363H574.546V232.272H570.454V236.363H569.545V232.272H565.454V231.363H569.545V227.272H570.454V231.363ZM615.909 231.363H620V232.272H615.909V236.363H615V232.272H610.909V231.363H615V227.272H615.909V231.363ZM665 231.363H669.091V232.272H665V236.363H664.091V232.272H660V231.363H664.091V227.272H665V231.363ZM710.454 231.363H714.546V232.272H710.454V236.363H709.545V232.272H705.454V231.363H709.545V227.272H710.454V231.363ZM755.909 231.363H760V232.272H755.909V236.363H755V232.272H750.909V231.363H755V227.272H755.909V231.363ZM801.363 231.363H805.454V232.272H801.363V236.363H800.454V232.272H796.363V231.363H800.454V227.272H801.363V231.363ZM846.818 231.363H850.909V232.272H846.818V236.363H845.909V232.272H841.818V231.363H845.909V227.272H846.818V231.363ZM892.272 231.363H896.363V232.272H892.272V236.363H891.363V232.272H887.272V231.363H891.363V227.272H892.272V231.363ZM937.728 231.363H941.818V232.272H937.728V236.363H936.818V232.272H932.728V231.363H936.818V227.272H937.728V231.363ZM983.182 231.363H987.272V232.272H983.182V236.363H982.272V232.272H978.182V231.363H982.272V227.272H983.182V231.363ZM1028.64 231.363H1032.73V232.272H1028.64V236.363H1027.73V232.272H1023.64V231.363H1027.73V227.272H1028.64V231.363ZM1074.09 231.363H1078.18V232.272H1074.09V236.363H1073.18V232.272H1069.09V231.363H1073.18V227.272H1074.09V231.363ZM1119.54 231.363H1123.64V232.272H1119.54V236.363H1118.64V232.272H1114.55V231.363H1118.64V227.272H1119.54V231.363ZM1165 231.363H1169.09V232.272H1165V236.363H1164.09V232.272H1160V231.363H1164.09V227.272H1165V231.363ZM1210.45 231.363H1214.55V232.272H1210.45V236.363H1209.54V232.272H1205.45V231.363H1209.54V227.272H1210.45V231.363ZM1255.91 231.363H1260V232.272H1255.91V236.363H1255V232.272H1250.91V231.363H1255V227.272H1255.91V231.363ZM1305 231.363H1309.09V232.272H1305V236.363H1304.09V232.272H1300V231.363H1304.09V227.272H1305V231.363ZM1350.45 231.363H1354.55V232.272H1350.45V236.363H1349.54V232.272H1345.45V231.363H1349.54V227.272H1350.45V231.363ZM1395.91 231.363H1400V232.272H1395.91V236.363H1395V232.272H1390.91V231.363H1395V227.272H1395.91V231.363ZM1441.36 231.363H1445.45V232.272H1441.36V236.363H1440.45V232.272H1436.36V231.363H1440.45V227.272H1441.36V231.363ZM1486.82 231.363H1490.91V232.272H1486.82V236.363H1485.91V232.272H1481.82V231.363H1485.91V227.272H1486.82V231.363ZM1532.27 231.363H1536.36V232.272H1532.27V236.363H1531.36V232.272H1527.27V231.363H1531.36V227.272H1532.27V231.363ZM1577.73 231.363H1581.82V232.272H1577.73V236.363H1576.82V232.272H1572.73V231.363H1576.82V227.272H1577.73V231.363ZM1623.18 231.363H1627.27V232.272H1623.18V236.363H1622.27V232.272H1618.18V231.363H1622.27V227.272H1623.18V231.363ZM1668.64 231.363H1672.73V232.272H1668.64V236.363H1667.73V232.272H1663.64V231.363H1667.73V227.272H1668.64V231.363ZM1714.09 231.363H1718.18V232.272H1714.09V236.363H1713.18V232.272H1709.09V231.363H1713.18V227.272H1714.09V231.363ZM1759.54 231.363H1763.64V232.272H1759.54V236.363H1758.64V232.272H1754.55V231.363H1758.64V227.272H1759.54V231.363ZM1805 231.363H1809.09V232.272H1805V236.363H1804.09V232.272H1800V231.363H1804.09V227.272H1805V231.363ZM1850.45 231.363H1854.55V232.272H1850.45V236.363H1849.54V232.272H1845.45V231.363H1849.54V227.272H1850.45V231.363ZM1895.91 231.363H1900V232.272H1895.91V236.363H1895V232.272H1890.91V231.363H1895V227.272H1895.91V231.363ZM207.272 185.454H215.454V187.272H207.272V195.454H205.454V187.272H197.272V185.454H205.454V177.272H207.272V185.454ZM434.546 185.454H442.728V187.272H434.546V195.454H432.728V187.272H424.546V185.454H432.728V177.272H434.546V185.454ZM847.272 185.454H855.454V187.272H847.272V195.454H845.454V187.272H837.272V185.454H845.454V177.272H847.272V185.454ZM1074.55 185.454H1082.73V187.272H1074.55V195.454H1072.73V187.272H1064.55V185.454H1072.73V177.272H1074.55V185.454ZM1487.27 185.454H1495.45V187.272H1487.27V195.454H1485.45V187.272H1477.27V185.454H1485.45V177.272H1487.27V185.454ZM1714.55 185.454H1722.73V187.272H1714.55V195.454H1712.73V187.272H1704.55V185.454H1712.73V177.272H1714.55V185.454ZM25 185.909H29.0908V186.818H25V190.909H24.0908V186.818H20V185.909H24.0908V181.818H25V185.909ZM70.4541 185.909H74.5459V186.818H70.4541V190.909H69.5449V186.818H65.4541V185.909H69.5449V181.818H70.4541V185.909ZM115.909 185.909H120V186.818H115.909V190.909H115V186.818H110.909V185.909H115V181.818H115.909V185.909ZM161.363 185.909H165.454V186.818H161.363V190.909H160.454V186.818H156.363V185.909H160.454V181.818H161.363V185.909ZM252.272 185.909H256.363V186.818H252.272V190.909H251.363V186.818H247.272V185.909H251.363V181.818H252.272V185.909ZM297.728 185.909H301.818V186.818H297.728V190.909H296.818V186.818H292.728V185.909H296.818V181.818H297.728V185.909ZM343.182 185.909H347.272V186.818H343.182V190.909H342.272V186.818H338.182V185.909H342.272V181.818H343.182V185.909ZM388.637 185.909H392.728V186.818H388.637V190.909H387.728V186.818H383.637V185.909H387.728V181.818H388.637V185.909ZM479.545 185.909H483.637V186.818H479.545V190.909H478.637V186.818H474.546V185.909H478.637V181.818H479.545V185.909ZM525 185.909H529.091V186.818H525V190.909H524.091V186.818H520V185.909H524.091V181.818H525V185.909ZM570.454 185.909H574.546V186.818H570.454V190.909H569.545V186.818H565.454V185.909H569.545V181.818H570.454V185.909ZM615.909 185.909H620V186.818H615.909V190.909H615V186.818H610.909V185.909H615V181.818H615.909V185.909ZM665 185.909H669.091V186.818H665V190.909H664.091V186.818H660V185.909H664.091V181.818H665V185.909ZM710.454 185.909H714.546V186.818H710.454V190.909H709.545V186.818H705.454V185.909H709.545V181.818H710.454V185.909ZM755.909 185.909H760V186.818H755.909V190.909H755V186.818H750.909V185.909H755V181.818H755.909V185.909ZM801.363 185.909H805.454V186.818H801.363V190.909H800.454V186.818H796.363V185.909H800.454V181.818H801.363V185.909ZM892.272 185.909H896.363V186.818H892.272V190.909H891.363V186.818H887.272V185.909H891.363V181.818H892.272V185.909ZM937.728 185.909H941.818V186.818H937.728V190.909H936.818V186.818H932.728V185.909H936.818V181.818H937.728V185.909ZM983.182 185.909H987.272V186.818H983.182V190.909H982.272V186.818H978.182V185.909H982.272V181.818H983.182V185.909ZM1028.64 185.909H1032.73V186.818H1028.64V190.909H1027.73V186.818H1023.64V185.909H1027.73V181.818H1028.64V185.909ZM1119.54 185.909H1123.64V186.818H1119.54V190.909H1118.64V186.818H1114.55V185.909H1118.64V181.818H1119.54V185.909ZM1165 185.909H1169.09V186.818H1165V190.909H1164.09V186.818H1160V185.909H1164.09V181.818H1165V185.909ZM1210.45 185.909H1214.55V186.818H1210.45V190.909H1209.54V186.818H1205.45V185.909H1209.54V181.818H1210.45V185.909ZM1255.91 185.909H1260V186.818H1255.91V190.909H1255V186.818H1250.91V185.909H1255V181.818H1255.91V185.909ZM1305 185.909H1309.09V186.818H1305V190.909H1304.09V186.818H1300V185.909H1304.09V181.818H1305V185.909ZM1350.45 185.909H1354.55V186.818H1350.45V190.909H1349.54V186.818H1345.45V185.909H1349.54V181.818H1350.45V185.909ZM1395.91 185.909H1400V186.818H1395.91V190.909H1395V186.818H1390.91V185.909H1395V181.818H1395.91V185.909ZM1441.36 185.909H1445.45V186.818H1441.36V190.909H1440.45V186.818H1436.36V185.909H1440.45V181.818H1441.36V185.909ZM1532.27 185.909H1536.36V186.818H1532.27V190.909H1531.36V186.818H1527.27V185.909H1531.36V181.818H1532.27V185.909ZM1577.73 185.909H1581.82V186.818H1577.73V190.909H1576.82V186.818H1572.73V185.909H1576.82V181.818H1577.73V185.909ZM1623.18 185.909H1627.27V186.818H1623.18V190.909H1622.27V186.818H1618.18V185.909H1622.27V181.818H1623.18V185.909ZM1668.64 185.909H1672.73V186.818H1668.64V190.909H1667.73V186.818H1663.64V185.909H1667.73V181.818H1668.64V185.909ZM1759.54 185.909H1763.64V186.818H1759.54V190.909H1758.64V186.818H1754.55V185.909H1758.64V181.818H1759.54V185.909ZM1805 185.909H1809.09V186.818H1805V190.909H1804.09V186.818H1800V185.909H1804.09V181.818H1805V185.909ZM1850.45 185.909H1854.55V186.818H1850.45V190.909H1849.54V186.818H1845.45V185.909H1849.54V181.818H1850.45V185.909ZM1895.91 185.909H1900V186.818H1895.91V190.909H1895V186.818H1890.91V185.909H1895V181.818H1895.91V185.909ZM25 140.454H29.0908V141.363H25V145.454H24.0908V141.363H20V140.454H24.0908V136.363H25V140.454ZM70.4541 140.454H74.5459V141.363H70.4541V145.454H69.5449V141.363H65.4541V140.454H69.5449V136.363H70.4541V140.454ZM115.909 140.454H120V141.363H115.909V145.454H115V141.363H110.909V140.454H115V136.363H115.909V140.454ZM161.363 140.454H165.454V141.363H161.363V145.454H160.454V141.363H156.363V140.454H160.454V136.363H161.363V140.454ZM206.818 140.454H210.909V141.363H206.818V145.454H205.909V141.363H201.818V140.454H205.909V136.363H206.818V140.454ZM252.272 140.454H256.363V141.363H252.272V145.454H251.363V141.363H247.272V140.454H251.363V136.363H252.272V140.454ZM297.728 140.454H301.818V141.363H297.728V145.454H296.818V141.363H292.728V140.454H296.818V136.363H297.728V140.454ZM343.182 140.454H347.272V141.363H343.182V145.454H342.272V141.363H338.182V140.454H342.272V136.363H343.182V140.454ZM388.637 140.454H392.728V141.363H388.637V145.454H387.728V141.363H383.637V140.454H387.728V136.363H388.637V140.454ZM434.091 140.454H438.182V141.363H434.091V145.454H433.182V141.363H429.091V140.454H433.182V136.363H434.091V140.454ZM479.545 140.454H483.637V141.363H479.545V145.454H478.637V141.363H474.546V140.454H478.637V136.363H479.545V140.454ZM525 140.454H529.091V141.363H525V145.454H524.091V141.363H520V140.454H524.091V136.363H525V140.454ZM570.454 140.454H574.546V141.363H570.454V145.454H569.545V141.363H565.454V140.454H569.545V136.363H570.454V140.454ZM615.909 140.454H620V141.363H615.909V145.454H615V141.363H610.909V140.454H615V136.363H615.909V140.454ZM665 140.454H669.091V141.363H665V145.454H664.091V141.363H660V140.454H664.091V136.363H665V140.454ZM710.454 140.454H714.546V141.363H710.454V145.454H709.545V141.363H705.454V140.454H709.545V136.363H710.454V140.454ZM755.909 140.454H760V141.363H755.909V145.454H755V141.363H750.909V140.454H755V136.363H755.909V140.454ZM801.363 140.454H805.454V141.363H801.363V145.454H800.454V141.363H796.363V140.454H800.454V136.363H801.363V140.454ZM846.818 140.454H850.909V141.363H846.818V145.454H845.909V141.363H841.818V140.454H845.909V136.363H846.818V140.454ZM892.272 140.454H896.363V141.363H892.272V145.454H891.363V141.363H887.272V140.454H891.363V136.363H892.272V140.454ZM937.728 140.454H941.818V141.363H937.728V145.454H936.818V141.363H932.728V140.454H936.818V136.363H937.728V140.454ZM983.182 140.454H987.272V141.363H983.182V145.454H982.272V141.363H978.182V140.454H982.272V136.363H983.182V140.454ZM1028.64 140.454H1032.73V141.363H1028.64V145.454H1027.73V141.363H1023.64V140.454H1027.73V136.363H1028.64V140.454ZM1074.09 140.454H1078.18V141.363H1074.09V145.454H1073.18V141.363H1069.09V140.454H1073.18V136.363H1074.09V140.454ZM1119.54 140.454H1123.64V141.363H1119.54V145.454H1118.64V141.363H1114.55V140.454H1118.64V136.363H1119.54V140.454ZM1165 140.454H1169.09V141.363H1165V145.454H1164.09V141.363H1160V140.454H1164.09V136.363H1165V140.454ZM1210.45 140.454H1214.55V141.363H1210.45V145.454H1209.54V141.363H1205.45V140.454H1209.54V136.363H1210.45V140.454ZM1255.91 140.454H1260V141.363H1255.91V145.454H1255V141.363H1250.91V140.454H1255V136.363H1255.91V140.454ZM1305 140.454H1309.09V141.363H1305V145.454H1304.09V141.363H1300V140.454H1304.09V136.363H1305V140.454ZM1350.45 140.454H1354.55V141.363H1350.45V145.454H1349.54V141.363H1345.45V140.454H1349.54V136.363H1350.45V140.454ZM1395.91 140.454H1400V141.363H1395.91V145.454H1395V141.363H1390.91V140.454H1395V136.363H1395.91V140.454ZM1441.36 140.454H1445.45V141.363H1441.36V145.454H1440.45V141.363H1436.36V140.454H1440.45V136.363H1441.36V140.454ZM1486.82 140.454H1490.91V141.363H1486.82V145.454H1485.91V141.363H1481.82V140.454H1485.91V136.363H1486.82V140.454ZM1532.27 140.454H1536.36V141.363H1532.27V145.454H1531.36V141.363H1527.27V140.454H1531.36V136.363H1532.27V140.454ZM1577.73 140.454H1581.82V141.363H1577.73V145.454H1576.82V141.363H1572.73V140.454H1576.82V136.363H1577.73V140.454ZM1623.18 140.454H1627.27V141.363H1623.18V145.454H1622.27V141.363H1618.18V140.454H1622.27V136.363H1623.18V140.454ZM1668.64 140.454H1672.73V141.363H1668.64V145.454H1667.73V141.363H1663.64V140.454H1667.73V136.363H1668.64V140.454ZM1714.09 140.454H1718.18V141.363H1714.09V145.454H1713.18V141.363H1709.09V140.454H1713.18V136.363H1714.09V140.454ZM1759.54 140.454H1763.64V141.363H1759.54V145.454H1758.64V141.363H1754.55V140.454H1758.64V136.363H1759.54V140.454ZM1805 140.454H1809.09V141.363H1805V145.454H1804.09V141.363H1800V140.454H1804.09V136.363H1805V140.454ZM1850.45 140.454H1854.55V141.363H1850.45V145.454H1849.54V141.363H1845.45V140.454H1849.54V136.363H1850.45V140.454ZM1895.91 140.454H1900V141.363H1895.91V145.454H1895V141.363H1890.91V140.454H1895V136.363H1895.91V140.454ZM25 95H29.0908V95.9092H25V100H24.0908V95.9092H20V95H24.0908V90.9092H25V95ZM70.4541 95H74.5459V95.9092H70.4541V100H69.5449V95.9092H65.4541V95H69.5449V90.9092H70.4541V95ZM115.909 95H120V95.9092H115.909V100H115V95.9092H110.909V95H115V90.9092H115.909V95ZM161.363 95H165.454V95.9092H161.363V100H160.454V95.9092H156.363V95H160.454V90.9092H161.363V95ZM206.818 95H210.909V95.9092H206.818V100H205.909V95.9092H201.818V95H205.909V90.9092H206.818V95ZM252.272 95H256.363V95.9092H252.272V100H251.363V95.9092H247.272V95H251.363V90.9092H252.272V95ZM297.728 95H301.818V95.9092H297.728V100H296.818V95.9092H292.728V95H296.818V90.9092H297.728V95ZM343.182 95H347.272V95.9092H343.182V100H342.272V95.9092H338.182V95H342.272V90.9092H343.182V95ZM388.637 95H392.728V95.9092H388.637V100H387.728V95.9092H383.637V95H387.728V90.9092H388.637V95ZM434.091 95H438.182V95.9092H434.091V100H433.182V95.9092H429.091V95H433.182V90.9092H434.091V95ZM479.545 95H483.637V95.9092H479.545V100H478.637V95.9092H474.546V95H478.637V90.9092H479.545V95ZM525 95H529.091V95.9092H525V100H524.091V95.9092H520V95H524.091V90.9092H525V95ZM570.454 95H574.546V95.9092H570.454V100H569.545V95.9092H565.454V95H569.545V90.9092H570.454V95ZM615.909 95H620V95.9092H615.909V100H615V95.9092H610.909V95H615V90.9092H615.909V95ZM665 95H669.091V95.9092H665V100H664.091V95.9092H660V95H664.091V90.9092H665V95ZM710.454 95H714.546V95.9092H710.454V100H709.545V95.9092H705.454V95H709.545V90.9092H710.454V95ZM755.909 95H760V95.9092H755.909V100H755V95.9092H750.909V95H755V90.9092H755.909V95ZM801.363 95H805.454V95.9092H801.363V100H800.454V95.9092H796.363V95H800.454V90.9092H801.363V95ZM846.818 95H850.909V95.9092H846.818V100H845.909V95.9092H841.818V95H845.909V90.9092H846.818V95ZM892.272 95H896.363V95.9092H892.272V100H891.363V95.9092H887.272V95H891.363V90.9092H892.272V95ZM937.728 95H941.818V95.9092H937.728V100H936.818V95.9092H932.728V95H936.818V90.9092H937.728V95ZM983.182 95H987.272V95.9092H983.182V100H982.272V95.9092H978.182V95H982.272V90.9092H983.182V95ZM1028.64 95H1032.73V95.9092H1028.64V100H1027.73V95.9092H1023.64V95H1027.73V90.9092H1028.64V95ZM1074.09 95H1078.18V95.9092H1074.09V100H1073.18V95.9092H1069.09V95H1073.18V90.9092H1074.09V95ZM1119.54 95H1123.64V95.9092H1119.54V100H1118.64V95.9092H1114.55V95H1118.64V90.9092H1119.54V95ZM1165 95H1169.09V95.9092H1165V100H1164.09V95.9092H1160V95H1164.09V90.9092H1165V95ZM1210.45 95H1214.55V95.9092H1210.45V100H1209.54V95.9092H1205.45V95H1209.54V90.9092H1210.45V95ZM1255.91 95H1260V95.9092H1255.91V100H1255V95.9092H1250.91V95H1255V90.9092H1255.91V95ZM1305 95H1309.09V95.9092H1305V100H1304.09V95.9092H1300V95H1304.09V90.9092H1305V95ZM1350.45 95H1354.55V95.9092H1350.45V100H1349.54V95.9092H1345.45V95H1349.54V90.9092H1350.45V95ZM1395.91 95H1400V95.9092H1395.91V100H1395V95.9092H1390.91V95H1395V90.9092H1395.91V95ZM1441.36 95H1445.45V95.9092H1441.36V100H1440.45V95.9092H1436.36V95H1440.45V90.9092H1441.36V95ZM1486.82 95H1490.91V95.9092H1486.82V100H1485.91V95.9092H1481.82V95H1485.91V90.9092H1486.82V95ZM1532.27 95H1536.36V95.9092H1532.27V100H1531.36V95.9092H1527.27V95H1531.36V90.9092H1532.27V95ZM1577.73 95H1581.82V95.9092H1577.73V100H1576.82V95.9092H1572.73V95H1576.82V90.9092H1577.73V95ZM1623.18 95H1627.27V95.9092H1623.18V100H1622.27V95.9092H1618.18V95H1622.27V90.9092H1623.18V95ZM1668.64 95H1672.73V95.9092H1668.64V100H1667.73V95.9092H1663.64V95H1667.73V90.9092H1668.64V95ZM1714.09 95H1718.18V95.9092H1714.09V100H1713.18V95.9092H1709.09V95H1713.18V90.9092H1714.09V95ZM1759.54 95H1763.64V95.9092H1759.54V100H1758.64V95.9092H1754.55V95H1758.64V90.9092H1759.54V95ZM1805 95H1809.09V95.9092H1805V100H1804.09V95.9092H1800V95H1804.09V90.9092H1805V95ZM1850.45 95H1854.55V95.9092H1850.45V100H1849.54V95.9092H1845.45V95H1849.54V90.9092H1850.45V95ZM1895.91 95H1900V95.9092H1895.91V100H1895V95.9092H1890.91V95H1895V90.9092H1895.91V95ZM25 49.5459H29.0908V50.4541H25V54.5459H24.0908V50.4541H20V49.5459H24.0908V45.4541H25V49.5459ZM70.4541 49.5459H74.5459V50.4541H70.4541V54.5459H69.5449V50.4541H65.4541V49.5459H69.5449V45.4541H70.4541V49.5459ZM115.909 49.5459H120V50.4541H115.909V54.5459H115V50.4541H110.909V49.5459H115V45.4541H115.909V49.5459ZM161.363 49.5459H165.454V50.4541H161.363V54.5459H160.454V50.4541H156.363V49.5459H160.454V45.4541H161.363V49.5459ZM206.818 49.5459H210.909V50.4541H206.818V54.5459H205.909V50.4541H201.818V49.5459H205.909V45.4541H206.818V49.5459ZM252.272 49.5459H256.363V50.4541H252.272V54.5459H251.363V50.4541H247.272V49.5459H251.363V45.4541H252.272V49.5459ZM297.728 49.5459H301.818V50.4541H297.728V54.5459H296.818V50.4541H292.728V49.5459H296.818V45.4541H297.728V49.5459ZM343.182 49.5459H347.272V50.4541H343.182V54.5459H342.272V50.4541H338.182V49.5459H342.272V45.4541H343.182V49.5459ZM388.637 49.5459H392.728V50.4541H388.637V54.5459H387.728V50.4541H383.637V49.5459H387.728V45.4541H388.637V49.5459ZM434.091 49.5459H438.182V50.4541H434.091V54.5459H433.182V50.4541H429.091V49.5459H433.182V45.4541H434.091V49.5459ZM479.545 49.5459H483.637V50.4541H479.545V54.5459H478.637V50.4541H474.546V49.5459H478.637V45.4541H479.545V49.5459ZM525 49.5459H529.091V50.4541H525V54.5459H524.091V50.4541H520V49.5459H524.091V45.4541H525V49.5459ZM570.454 49.5459H574.546V50.4541H570.454V54.5459H569.545V50.4541H565.454V49.5459H569.545V45.4541H570.454V49.5459ZM615.909 49.5459H620V50.4541H615.909V54.5459H615V50.4541H610.909V49.5459H615V45.4541H615.909V49.5459ZM665 49.5459H669.091V50.4541H665V54.5459H664.091V50.4541H660V49.5459H664.091V45.4541H665V49.5459ZM710.454 49.5459H714.546V50.4541H710.454V54.5459H709.545V50.4541H705.454V49.5459H709.545V45.4541H710.454V49.5459ZM755.909 49.5459H760V50.4541H755.909V54.5459H755V50.4541H750.909V49.5459H755V45.4541H755.909V49.5459ZM801.363 49.5459H805.454V50.4541H801.363V54.5459H800.454V50.4541H796.363V49.5459H800.454V45.4541H801.363V49.5459ZM846.818 49.5459H850.909V50.4541H846.818V54.5459H845.909V50.4541H841.818V49.5459H845.909V45.4541H846.818V49.5459ZM892.272 49.5459H896.363V50.4541H892.272V54.5459H891.363V50.4541H887.272V49.5459H891.363V45.4541H892.272V49.5459ZM937.728 49.5459H941.818V50.4541H937.728V54.5459H936.818V50.4541H932.728V49.5459H936.818V45.4541H937.728V49.5459ZM983.182 49.5459H987.272V50.4541H983.182V54.5459H982.272V50.4541H978.182V49.5459H982.272V45.4541H983.182V49.5459ZM1028.64 49.5459H1032.73V50.4541H1028.64V54.5459H1027.73V50.4541H1023.64V49.5459H1027.73V45.4541H1028.64V49.5459ZM1074.09 49.5459H1078.18V50.4541H1074.09V54.5459H1073.18V50.4541H1069.09V49.5459H1073.18V45.4541H1074.09V49.5459ZM1119.54 49.5459H1123.64V50.4541H1119.54V54.5459H1118.64V50.4541H1114.55V49.5459H1118.64V45.4541H1119.54V49.5459ZM1165 49.5459H1169.09V50.4541H1165V54.5459H1164.09V50.4541H1160V49.5459H1164.09V45.4541H1165V49.5459ZM1210.45 49.5459H1214.55V50.4541H1210.45V54.5459H1209.54V50.4541H1205.45V49.5459H1209.54V45.4541H1210.45V49.5459ZM1255.91 49.5459H1260V50.4541H1255.91V54.5459H1255V50.4541H1250.91V49.5459H1255V45.4541H1255.91V49.5459ZM1305 49.5459H1309.09V50.4541H1305V54.5459H1304.09V50.4541H1300V49.5459H1304.09V45.4541H1305V49.5459ZM1350.45 49.5459H1354.55V50.4541H1350.45V54.5459H1349.54V50.4541H1345.45V49.5459H1349.54V45.4541H1350.45V49.5459ZM1395.91 49.5459H1400V50.4541H1395.91V54.5459H1395V50.4541H1390.91V49.5459H1395V45.4541H1395.91V49.5459ZM1441.36 49.5459H1445.45V50.4541H1441.36V54.5459H1440.45V50.4541H1436.36V49.5459H1440.45V45.4541H1441.36V49.5459ZM1486.82 49.5459H1490.91V50.4541H1486.82V54.5459H1485.91V50.4541H1481.82V49.5459H1485.91V45.4541H1486.82V49.5459ZM1532.27 49.5459H1536.36V50.4541H1532.27V54.5459H1531.36V50.4541H1527.27V49.5459H1531.36V45.4541H1532.27V49.5459ZM1577.73 49.5459H1581.82V50.4541H1577.73V54.5459H1576.82V50.4541H1572.73V49.5459H1576.82V45.4541H1577.73V49.5459ZM1623.18 49.5459H1627.27V50.4541H1623.18V54.5459H1622.27V50.4541H1618.18V49.5459H1622.27V45.4541H1623.18V49.5459ZM1668.64 49.5459H1672.73V50.4541H1668.64V54.5459H1667.73V50.4541H1663.64V49.5459H1667.73V45.4541H1668.64V49.5459ZM1714.09 49.5459H1718.18V50.4541H1714.09V54.5459H1713.18V50.4541H1709.09V49.5459H1713.18V45.4541H1714.09V49.5459ZM1759.54 49.5459H1763.64V50.4541H1759.54V54.5459H1758.64V50.4541H1754.55V49.5459H1758.64V45.4541H1759.54V49.5459ZM1805 49.5459H1809.09V50.4541H1805V54.5459H1804.09V50.4541H1800V49.5459H1804.09V45.4541H1805V49.5459ZM1850.45 49.5459H1854.55V50.4541H1850.45V54.5459H1849.54V50.4541H1845.45V49.5459H1849.54V45.4541H1850.45V49.5459ZM1895.91 49.5459H1900V50.4541H1895.91V54.5459H1895V50.4541H1890.91V49.5459H1895V45.4541H1895.91V49.5459ZM25 4.09082H29.0908V5H25V9.09082H24.0908V5H20V4.09082H24.0908V0H25V4.09082ZM70.4541 4.09082H74.5459V5H70.4541V9.09082H69.5449V5H65.4541V4.09082H69.5449V0H70.4541V4.09082ZM115.909 4.09082H120V5H115.909V9.09082H115V5H110.909V4.09082H115V0H115.909V4.09082ZM161.363 4.09082H165.454V5H161.363V9.09082H160.454V5H156.363V4.09082H160.454V0H161.363V4.09082ZM206.818 4.09082H210.909V5H206.818V9.09082H205.909V5H201.818V4.09082H205.909V0H206.818V4.09082ZM252.272 4.09082H256.363V5H252.272V9.09082H251.363V5H247.272V4.09082H251.363V0H252.272V4.09082ZM297.728 4.09082H301.818V5H297.728V9.09082H296.818V5H292.728V4.09082H296.818V0H297.728V4.09082ZM343.182 4.09082H347.272V5H343.182V9.09082H342.272V5H338.182V4.09082H342.272V0H343.182V4.09082ZM388.637 4.09082H392.728V5H388.637V9.09082H387.728V5H383.637V4.09082H387.728V0H388.637V4.09082ZM434.091 4.09082H438.182V5H434.091V9.09082H433.182V5H429.091V4.09082H433.182V0H434.091V4.09082ZM479.545 4.09082H483.637V5H479.545V9.09082H478.637V5H474.546V4.09082H478.637V0H479.545V4.09082ZM525 4.09082H529.091V5H525V9.09082H524.091V5H520V4.09082H524.091V0H525V4.09082ZM570.454 4.09082H574.546V5H570.454V9.09082H569.545V5H565.454V4.09082H569.545V0H570.454V4.09082ZM615.909 4.09082H620V5H615.909V9.09082H615V5H610.909V4.09082H615V0H615.909V4.09082ZM665 4.09082H669.091V5H665V9.09082H664.091V5H660V4.09082H664.091V0H665V4.09082ZM710.454 4.09082H714.546V5H710.454V9.09082H709.545V5H705.454V4.09082H709.545V0H710.454V4.09082ZM755.909 4.09082H760V5H755.909V9.09082H755V5H750.909V4.09082H755V0H755.909V4.09082ZM801.363 4.09082H805.454V5H801.363V9.09082H800.454V5H796.363V4.09082H800.454V0H801.363V4.09082ZM846.818 4.09082H850.909V5H846.818V9.09082H845.909V5H841.818V4.09082H845.909V0H846.818V4.09082ZM892.272 4.09082H896.363V5H892.272V9.09082H891.363V5H887.272V4.09082H891.363V0H892.272V4.09082ZM937.728 4.09082H941.818V5H937.728V9.09082H936.818V5H932.728V4.09082H936.818V0H937.728V4.09082ZM983.182 4.09082H987.272V5H983.182V9.09082H982.272V5H978.182V4.09082H982.272V0H983.182V4.09082ZM1028.64 4.09082H1032.73V5H1028.64V9.09082H1027.73V5H1023.64V4.09082H1027.73V0H1028.64V4.09082ZM1074.09 4.09082H1078.18V5H1074.09V9.09082H1073.18V5H1069.09V4.09082H1073.18V0H1074.09V4.09082ZM1119.54 4.09082H1123.64V5H1119.54V9.09082H1118.64V5H1114.55V4.09082H1118.64V0H1119.54V4.09082ZM1165 4.09082H1169.09V5H1165V9.09082H1164.09V5H1160V4.09082H1164.09V0H1165V4.09082ZM1210.45 4.09082H1214.55V5H1210.45V9.09082H1209.54V5H1205.45V4.09082H1209.54V0H1210.45V4.09082ZM1255.91 4.09082H1260V5H1255.91V9.09082H1255V5H1250.91V4.09082H1255V0H1255.91V4.09082ZM1305 4.09082H1309.09V5H1305V9.09082H1304.09V5H1300V4.09082H1304.09V0H1305V4.09082ZM1350.45 4.09082H1354.55V5H1350.45V9.09082H1349.54V5H1345.45V4.09082H1349.54V0H1350.45V4.09082ZM1395.91 4.09082H1400V5H1395.91V9.09082H1395V5H1390.91V4.09082H1395V0H1395.91V4.09082ZM1441.36 4.09082H1445.45V5H1441.36V9.09082H1440.45V5H1436.36V4.09082H1440.45V0H1441.36V4.09082ZM1486.82 4.09082H1490.91V5H1486.82V9.09082H1485.91V5H1481.82V4.09082H1485.91V0H1486.82V4.09082ZM1532.27 4.09082H1536.36V5H1532.27V9.09082H1531.36V5H1527.27V4.09082H1531.36V0H1532.27V4.09082ZM1577.73 4.09082H1581.82V5H1577.73V9.09082H1576.82V5H1572.73V4.09082H1576.82V0H1577.73V4.09082ZM1623.18 4.09082H1627.27V5H1623.18V9.09082H1622.27V5H1618.18V4.09082H1622.27V0H1623.18V4.09082ZM1668.64 4.09082H1672.73V5H1668.64V9.09082H1667.73V5H1663.64V4.09082H1667.73V0H1668.64V4.09082ZM1714.09 4.09082H1718.18V5H1714.09V9.09082H1713.18V5H1709.09V4.09082H1713.18V0H1714.09V4.09082ZM1759.54 4.09082H1763.64V5H1759.54V9.09082H1758.64V5H1754.55V4.09082H1758.64V0H1759.54V4.09082ZM1805 4.09082H1809.09V5H1805V9.09082H1804.09V5H1800V4.09082H1804.09V0H1805V4.09082ZM1850.45 4.09082H1854.55V5H1850.45V9.09082H1849.54V5H1845.45V4.09082H1849.54V0H1850.45V4.09082ZM1895.91 4.09082H1900V5H1895.91V9.09082H1895V5H1890.91V4.09082H1895V0H1895.91V4.09082Z"
        fill="#185FEA" />
</svg>